<svg width="24" height="24" viewBox="0 0 24 24" fill="none" xmlns="http://www.w3.org/2000/svg">
<g clip-path="url(#clip0_256_169)">
<path d="M18.8935 7.39451C18.9479 7.39446 18.9479 7.39446 19.0033 7.39441C19.5215 7.39512 20.0357 7.41359 20.5517 7.46189C20.608 7.46662 20.6643 7.47134 20.7223 7.47622C21.1453 7.52187 21.1453 7.52187 21.2928 7.65744C21.4201 7.8492 21.411 7.92956 21.375 8.15622C21.2386 8.30752 21.1684 8.3422 20.9632 8.35343C20.8963 8.34829 20.8294 8.3421 20.7627 8.33493C20.7305 8.33225 20.6982 8.32956 20.665 8.32679C20.5168 8.3142 20.3688 8.29943 20.2209 8.28423C19.802 8.24454 19.3842 8.24055 18.9639 8.24118C18.9265 8.24123 18.8892 8.24127 18.8507 8.24132C16.678 8.2339 16.678 8.2339 14.7656 9.09372C14.7274 9.21549 14.7274 9.21549 14.7187 9.3281C15.5954 9.90398 16.6412 10.0843 17.6719 10.1718C17.7311 10.177 17.7903 10.1822 17.8513 10.1876C19.4042 10.3039 21.8029 10.4027 23.1094 9.37497C23.1527 9.25266 23.1527 9.25266 23.1562 9.1406C22.8589 8.90322 22.5363 8.77279 22.1817 8.64602C22.1462 8.63309 22.1107 8.62017 22.0741 8.60685C22.0422 8.59563 22.0102 8.58441 21.9773 8.57285C21.878 8.52515 21.8202 8.47527 21.75 8.3906C21.6987 8.22203 21.6881 8.14231 21.7617 7.98044C21.8437 7.87497 21.8437 7.87497 21.9844 7.78122C22.6105 7.78122 23.286 8.09969 23.7246 8.53672C23.9609 8.79686 24.007 8.97294 24.0075 9.32308C24.0078 9.36119 24.008 9.39929 24.0082 9.43855C24.009 9.56669 24.0094 9.69483 24.0098 9.82296C24.0102 9.91466 24.0107 10.0064 24.0112 10.0981C24.0126 10.3996 24.0136 10.7012 24.0145 11.0028C24.0146 11.0541 24.0148 11.1054 24.0149 11.1583C24.0164 11.6421 24.0176 12.126 24.0184 12.6098C24.0194 13.2287 24.0214 13.8476 24.0247 14.4665C24.0269 14.9016 24.028 15.3368 24.0284 15.7719C24.0286 16.0318 24.0293 16.2917 24.0312 16.5516C24.0329 16.7962 24.0333 17.0408 24.0327 17.2854C24.0327 17.3751 24.0331 17.4647 24.0341 17.5543C24.0428 18.3725 24.0428 18.3725 23.7896 18.6795C22.7224 19.7418 20.6547 19.828 19.2422 19.8457C19.1876 19.8469 19.1331 19.8481 19.0769 19.8494C18.6967 19.8502 18.6967 19.8502 18.5041 19.745C18.3926 19.6034 18.3909 19.5286 18.4015 19.3548C18.4323 19.2197 18.4999 19.1586 18.6094 19.0781C18.7226 19.0215 18.7976 19.0239 18.9241 19.0213C18.9702 19.0201 19.0162 19.0189 19.0637 19.0176C19.1139 19.0163 19.1641 19.015 19.2158 19.0136C21.2688 18.9601 21.2688 18.9601 23.1094 18.1406C23.2042 17.9983 23.2182 17.944 23.2324 17.7802C23.2359 17.7424 23.2394 17.7045 23.243 17.6654C23.2465 17.6222 23.2465 17.6222 23.25 17.5781C23.2124 17.5957 23.1748 17.6133 23.1361 17.6314C21.9412 18.1692 20.6143 18.331 19.3125 18.3427C19.2607 18.3441 19.2089 18.3455 19.1556 18.3469C19.1058 18.3473 19.0561 18.3477 19.0049 18.3481C18.9381 18.3491 18.9381 18.3491 18.8699 18.3501C18.7149 18.3217 18.66 18.2616 18.5625 18.1406C18.519 17.9651 18.5389 17.8095 18.624 17.6513C18.7576 17.5276 18.8886 17.525 19.0624 17.5213C19.1066 17.5201 19.1509 17.5189 19.1965 17.5176C19.2445 17.5163 19.2924 17.515 19.3418 17.5136C21.3696 17.4661 21.3696 17.4661 23.1517 16.6276C23.2499 16.4734 23.2528 16.3037 23.25 16.125C23.1944 16.1513 23.1944 16.1513 23.1377 16.1783C21.8895 16.7446 20.4985 16.8768 19.1426 16.8926C19.0833 16.8938 19.0241 16.895 18.9631 16.8962C18.9076 16.8964 18.8522 16.8965 18.795 16.8966C18.7209 16.8972 18.7209 16.8972 18.6453 16.8977C18.4831 16.8693 18.4293 16.8147 18.3281 16.6875C18.265 16.5277 18.2763 16.4663 18.3369 16.3037C18.4272 16.1635 18.4586 16.135 18.6094 16.0781C18.7318 16.0654 18.7318 16.0654 18.8719 16.0636C18.9505 16.062 18.9505 16.062 19.0306 16.0604C19.0869 16.0595 19.1432 16.0585 19.2012 16.0576C21.2617 16.0105 21.2617 16.0105 23.1094 15.1875C23.2059 15.0427 23.2143 15.0136 23.209 14.8506C23.207 14.7916 23.2051 14.7326 23.2031 14.6718C23.1567 14.698 23.1103 14.7241 23.0625 14.751C22.2682 15.1446 21.3129 15.2961 20.4375 15.375C20.3919 15.3791 20.3463 15.3833 20.2994 15.3875C19.8754 15.4221 19.454 15.4291 19.0288 15.428C18.916 15.4277 18.8032 15.428 18.6904 15.4283C18.6175 15.4282 18.5447 15.4282 18.4719 15.4281C18.4387 15.4282 18.4055 15.4283 18.3714 15.4284C17.8451 15.4259 17.8451 15.4259 17.6514 15.3017C17.5469 15.1388 17.5406 15.0008 17.5781 14.8125C17.6514 14.6982 17.6514 14.6982 17.7656 14.625C17.9982 14.5812 18.2245 14.5728 18.4603 14.5768C18.5311 14.5775 18.6018 14.5782 18.6726 14.5788C18.7091 14.5792 18.7457 14.5796 18.7834 14.58C20.1454 14.5926 21.9772 14.6067 23.1094 13.7343C23.2059 13.5896 23.2143 13.5605 23.209 13.3974C23.207 13.3385 23.2051 13.2795 23.2031 13.2187C23.1612 13.24 23.1612 13.24 23.1183 13.2618C20.8725 14.3463 17.5902 14.2503 15.2631 13.4859C14.753 13.3058 14.2253 13.0605 13.9426 12.5787C13.865 12.3987 13.8572 12.2715 13.8568 12.076C13.8565 12.0425 13.8563 12.0091 13.856 11.9747C13.8554 11.8649 13.8558 11.7552 13.8563 11.6455C13.8562 11.5688 13.8561 11.4921 13.8559 11.4154C13.8557 11.255 13.856 11.0945 13.8567 10.9341C13.8575 10.7288 13.857 10.5237 13.8562 10.3184C13.8556 10.1601 13.8558 10.0019 13.8562 9.84359C13.8563 9.76794 13.8562 9.69229 13.8558 9.61664C13.8555 9.51074 13.856 9.40488 13.8568 9.29899C13.8569 9.23884 13.857 9.17869 13.8571 9.11671C13.8911 8.80529 14.0515 8.60122 14.2714 8.39133C15.4679 7.44296 17.4459 7.39565 18.8935 7.39451ZM14.625 10.2656C14.6199 10.3309 14.6163 10.3964 14.6133 10.4619C14.6111 10.4983 14.6089 10.5348 14.6067 10.5723C14.6323 10.7331 14.7004 10.8056 14.8125 10.9218C16.5107 12.0894 19.4529 11.8767 21.3677 11.5223C21.6778 11.4596 21.9793 11.3766 22.2803 11.2793C22.3197 11.2667 22.3591 11.2542 22.3998 11.2412C22.7247 11.1297 23.0552 10.9797 23.25 10.6875C23.2613 10.5803 23.2613 10.5803 23.2559 10.4677C23.255 10.4299 23.2542 10.392 23.2533 10.3529C23.2522 10.3241 23.2511 10.2953 23.25 10.2656C23.1971 10.2866 23.1442 10.3075 23.0898 10.3291C20.5566 11.3118 17.2909 11.3329 14.7656 10.3125C14.7192 10.297 14.6728 10.2815 14.625 10.2656ZM14.625 11.7187C14.6199 11.7841 14.6163 11.8495 14.6133 11.915C14.6111 11.9514 14.6089 11.9879 14.6067 12.0254C14.6325 12.1878 14.6981 12.2582 14.8125 12.375C16.5947 13.54 19.5335 13.3507 21.5248 12.9387C22.1112 12.8106 22.7373 12.6697 23.1921 12.2521C23.2814 12.08 23.261 11.9089 23.25 11.7187C23.2005 11.7397 23.151 11.7607 23.1 11.7823C22.207 12.1509 21.3018 12.3216 20.3437 12.4218C20.286 12.4281 20.2283 12.4343 20.1689 12.4407C19.9928 12.4558 19.8172 12.4641 19.6406 12.4687C19.5936 12.47 19.5466 12.4713 19.4982 12.4726C17.8408 12.5102 16.1612 12.3899 14.625 11.7187Z" fill="#6B7280"/>
<path d="M6.35036 1.21554C7.4575 1.49654 8.4731 1.2827 9.56449 1.03458C9.89217 0.961425 10.2118 0.910954 10.5469 0.890686C10.5904 0.887917 10.634 0.885149 10.6788 0.882297C10.9921 0.865552 11.1439 0.946282 11.3819 1.15143C11.5598 1.36679 11.5065 1.70999 11.4844 1.96881C11.2772 3.02219 10.6363 4.02342 10.1057 4.94297C10.0843 4.98038 10.063 5.01779 10.041 5.05633C10.0119 5.10681 10.0119 5.10681 9.98218 5.1583C9.9288 5.25529 9.9288 5.25529 9.91996 5.39654C10.0248 5.6158 10.2106 5.72241 10.4063 5.85944C11.1788 6.42306 11.8745 7.02809 12.4688 7.78131C12.5245 7.84992 12.5245 7.84992 12.5814 7.91992C13.6345 9.2426 13.6345 9.2426 13.6436 9.78522C13.5819 9.97385 13.5364 10.0347 13.3594 10.1251C13.1267 10.1435 13.1267 10.1435 12.9844 10.0782C12.8624 9.95406 12.7859 9.80848 12.7032 9.65631C12.6438 9.54974 12.5843 9.44327 12.5244 9.33697C12.5087 9.30891 12.493 9.28084 12.4767 9.25192C12.3111 8.96139 12.1139 8.6995 11.9063 8.43756C11.8758 8.39744 11.8453 8.35732 11.8138 8.31598C11.272 7.6228 10.6258 7.0331 9.90293 6.53546C9.87351 6.515 9.8441 6.49455 9.81379 6.47347C9.75786 6.43478 9.70156 6.39661 9.6448 6.35914C9.36424 6.16648 9.16885 5.91259 9.09378 5.57819C9.08968 5.45302 9.09237 5.32846 9.09378 5.20319C9.0442 5.20381 9.0442 5.20381 8.99361 5.20445C8.68187 5.20821 8.37014 5.21106 8.05839 5.2129C7.89812 5.21388 7.73786 5.2152 7.5776 5.21733C7.3933 5.21976 7.20901 5.22067 7.02469 5.2215C6.93848 5.22295 6.93848 5.22295 6.85052 5.22443C6.79704 5.22444 6.74356 5.22446 6.68846 5.22447C6.64142 5.22489 6.59437 5.2253 6.54589 5.22573C6.38722 5.19688 6.33319 5.14068 6.23441 5.01569C6.18064 4.84723 6.17271 4.76877 6.2432 4.60553C6.33462 4.49204 6.38141 4.45782 6.51566 4.40631C6.65032 4.39504 6.65032 4.39504 6.80803 4.39567C6.8967 4.39568 6.8967 4.39568 6.98715 4.39569C7.05142 4.39617 7.11569 4.39666 7.17997 4.39716C7.24591 4.39733 7.31185 4.39746 7.37779 4.39756C7.55103 4.39791 7.72426 4.39884 7.89749 4.39987C8.07439 4.40083 8.25129 4.40126 8.42819 4.40173C8.77506 4.40274 9.12192 4.40434 9.46878 4.40631C9.48291 4.37019 9.49704 4.33407 9.5116 4.29685C9.56615 4.16307 9.63137 4.04138 9.70206 3.9154C10.0994 3.19849 10.4727 2.48261 10.6875 1.68756C10.3204 1.74046 9.95975 1.81563 9.59769 1.89557C9.16538 1.9908 8.73338 2.08201 8.29691 2.15631C8.24253 2.16565 8.24253 2.16565 8.18705 2.17517C7.30643 2.29879 6.46308 2.13923 5.61503 1.91482C5.15621 1.79741 4.68861 1.74167 4.21878 1.68756C4.43743 2.69014 4.95878 3.59168 5.5159 4.4442C5.74813 4.8058 5.86886 5.09737 5.85941 5.53131C5.89236 5.53089 5.92531 5.53048 5.95927 5.53005C6.2703 5.52629 6.58132 5.52343 6.89237 5.5216C7.05228 5.52062 7.21216 5.51929 7.37205 5.51717C7.55601 5.51473 7.73995 5.51383 7.92392 5.513C7.98116 5.51203 8.03839 5.51106 8.09736 5.51007C8.15084 5.51005 8.20431 5.51004 8.25941 5.51002C8.30635 5.50961 8.3533 5.50919 8.40166 5.50876C8.56875 5.53783 8.64654 5.6 8.76566 5.71881C8.80954 5.88262 8.83008 5.99284 8.77738 6.15533C8.71878 6.23444 8.71878 6.23444 8.57816 6.32819C8.44224 6.33872 8.44224 6.33872 8.27421 6.33718C8.22822 6.33698 8.22822 6.33698 8.18129 6.33678C8.11469 6.33648 8.04809 6.33598 7.98149 6.33532C7.87558 6.3344 7.7697 6.3343 7.66378 6.33447C7.36263 6.33492 7.06151 6.33496 6.76037 6.33189C6.576 6.33008 6.3917 6.33012 6.20733 6.33131C6.13753 6.33142 6.06773 6.33087 5.99795 6.3296C5.49212 6.32075 5.17624 6.42579 4.78128 6.75006C4.73983 6.78167 4.69838 6.81327 4.65567 6.84584C2.72481 8.3182 1.53171 10.6598 0.984409 12.9844C0.97607 13.0185 0.967732 13.0526 0.95914 13.0877C0.843807 13.5755 0.829649 14.0641 0.826206 14.5635C0.825549 14.6237 0.824891 14.6838 0.824214 14.7457C0.82703 15.3095 0.916464 15.8547 1.11039 16.3858C1.12223 16.4187 1.13408 16.4515 1.14629 16.4854C1.33673 16.9919 1.61705 17.4485 1.96878 17.8594C2.00051 17.8974 2.03223 17.9353 2.06491 17.9744C3.11181 19.1868 4.67971 19.7989 6.23441 20.0157C6.26486 20.02 6.2953 20.0244 6.32667 20.0289C6.72623 20.0802 7.13018 20.0771 7.53244 20.0827C7.59112 20.0842 7.64979 20.0856 7.71024 20.0871C7.76328 20.088 7.81631 20.089 7.87096 20.0899C8.03109 20.1115 8.1209 20.1545 8.25003 20.2501C8.32349 20.397 8.33683 20.5609 8.29691 20.7188C8.12246 20.8899 8.00844 20.9302 7.76627 20.9312C7.67881 20.9318 7.67881 20.9318 7.58958 20.9324C7.52653 20.9316 7.46348 20.9307 7.40042 20.9297C7.36827 20.9295 7.33612 20.9292 7.30299 20.9289C5.41824 20.9101 3.50484 20.381 2.06253 19.1251C1.99555 19.0682 1.99555 19.0682 1.92722 19.0103C0.860155 18.0852 0.174823 16.7747 3.38219e-05 15.3751C-0.0367843 14.5492 -0.0535414 13.698 0.140659 12.8907C0.15149 12.8448 0.162321 12.799 0.17348 12.7518C0.714727 10.5098 1.79887 8.52167 3.37503 6.84381C3.40229 6.81402 3.42954 6.78423 3.45761 6.75354C3.84903 6.34043 4.33098 6.0055 4.81278 5.70727C4.92877 5.61989 4.9763 5.57658 5.01566 5.43756C5.01132 5.16321 4.8672 4.97759 4.71976 4.75787C3.31206 2.59071 3.31206 2.59071 3.42191 1.40631C3.4765 1.20144 3.59135 1.07417 3.77054 0.963928C4.50006 0.65508 5.62421 1.03058 6.35036 1.21554Z" fill="#6B7280"/>
<path d="M13.2774 13.2041C13.3285 13.2043 13.3796 13.2046 13.4323 13.2049C14.756 13.2246 15.9141 13.7782 16.8633 14.6865C17.7997 15.6569 18.2529 16.9353 18.2519 18.2704C18.2284 19.4048 17.8134 20.5224 17.0625 21.375C17.0309 21.4133 16.9992 21.4517 16.9666 21.4912C16.126 22.4806 14.9109 22.9812 13.6407 23.1093C12.426 23.1987 11.1149 22.8336 10.1838 22.0318C10.1489 22.0006 10.1141 21.9695 10.0782 21.9375C10.0399 21.9059 10.0017 21.8743 9.96225 21.8417C9.03551 21.0553 8.44768 19.8643 8.34378 18.6562C8.24616 17.2352 8.6381 15.95 9.56253 14.8593C9.73587 14.6698 9.85656 14.5461 10.1133 14.499C10.2917 14.5367 10.3506 14.5688 10.4532 14.7187C10.5045 14.8795 10.5211 14.9588 10.4435 15.1107C10.3524 15.2447 10.251 15.36 10.1426 15.4804C9.38685 16.3625 9.12479 17.4689 9.18753 18.6093C9.27865 19.5558 9.74156 20.4268 10.4063 21.0937C10.4408 21.1293 10.4753 21.1649 10.5108 21.2016C11.2869 21.9543 12.3489 22.2842 13.4131 22.2798C14.3708 22.258 15.2522 21.8888 15.9844 21.2812C16.0253 21.2506 16.0253 21.2506 16.067 21.2193C16.8124 20.639 17.2739 19.6217 17.3907 18.7031C17.4606 17.3573 17.1386 16.2598 16.2323 15.2376C15.5942 14.5635 14.5574 14.0771 13.6271 14.0496C12.7528 14.0297 12.0353 14.1489 11.2639 14.566C11.0793 14.6365 10.9714 14.6252 10.7813 14.5781C10.6763 14.4934 10.6477 14.4335 10.626 14.3014C10.6112 14.0531 10.6112 14.0531 10.7154 13.9204C10.8512 13.8092 10.9945 13.7356 11.1534 13.664C11.1999 13.6428 11.1999 13.6428 11.2473 13.6211C11.9014 13.3298 12.5628 13.2002 13.2774 13.2041Z" fill="#6B7280"/>
<path d="M13.4062 14.8125C13.5454 14.9159 13.5857 14.9759 13.6406 15.1406C13.6439 15.269 13.645 15.3961 13.6435 15.5244C13.6433 15.5595 13.6431 15.5947 13.6429 15.6309C13.6423 15.7174 13.6415 15.804 13.6406 15.8906C13.6701 15.8918 13.6996 15.893 13.7299 15.8943C14.1541 15.9224 14.4489 16.0463 14.7401 16.3608C14.9698 16.6539 15.0347 16.9445 15.021 17.3146C15 17.4375 15 17.4375 14.9003 17.5664C14.7425 17.635 14.6545 17.6533 14.4843 17.625C14.3584 17.5635 14.3584 17.5635 14.25 17.4375C14.2113 17.3076 14.1826 17.1798 14.1593 17.0464C14.1054 16.9121 14.0504 16.8424 13.925 16.7685C13.7052 16.6911 13.4692 16.7097 13.2392 16.7138C13.1866 16.7135 13.1339 16.7132 13.0796 16.7128C12.8142 16.7149 12.6436 16.7165 12.4218 16.875C12.3033 17.0172 12.2812 17.0868 12.2812 17.2734C12.3365 17.4668 12.4092 17.5447 12.5625 17.6719C12.6929 17.7371 12.802 17.7255 12.9479 17.727C13.0366 17.7286 13.0366 17.7286 13.1271 17.7304C13.2513 17.7325 13.3756 17.7338 13.4999 17.7347C13.9692 17.745 14.3424 17.8211 14.6918 18.1501C14.984 18.4836 15.046 18.8405 15.0223 19.2727C14.9733 19.6679 14.7986 19.938 14.4893 20.1841C14.206 20.3733 13.9749 20.3965 13.6406 20.3906C13.643 20.4728 13.643 20.4728 13.6455 20.5567C13.6468 20.6292 13.6481 20.7018 13.6494 20.7744C13.6505 20.8104 13.6517 20.8465 13.6529 20.8836C13.6558 21.1032 13.6411 21.2425 13.5 21.4219C13.3808 21.5123 13.3226 21.516 13.1718 21.5097C13.0007 21.4598 12.9476 21.4265 12.8437 21.2812C12.8206 21.1283 12.8261 20.9784 12.832 20.8242C12.8328 20.7826 12.8337 20.7409 12.8345 20.698C12.8368 20.5955 12.8398 20.4931 12.8437 20.3906C12.8158 20.3915 12.7879 20.3924 12.7591 20.3934C12.3851 20.4006 12.0698 20.3095 11.7852 20.0497C11.533 19.7426 11.3901 19.3965 11.4166 18.9981C11.4375 18.8906 11.4375 18.8906 11.5078 18.7646C11.6703 18.6793 11.8201 18.6641 12 18.7031C12.1331 18.7763 12.1789 18.8186 12.2283 18.9637C12.246 19.0535 12.2635 19.1433 12.281 19.2332C12.3428 19.3988 12.4154 19.4503 12.5625 19.5469C12.7076 19.5754 12.7076 19.5754 12.8642 19.5718C12.9216 19.572 12.979 19.5722 13.0382 19.5725C13.0977 19.5718 13.1573 19.571 13.2187 19.5703C13.3081 19.5714 13.3081 19.5714 13.3992 19.5725C13.4854 19.5721 13.4854 19.5721 13.5732 19.5718C13.6255 19.5715 13.6777 19.5713 13.7316 19.5711C13.9056 19.5417 13.9838 19.4809 14.1093 19.3594C14.1844 19.2093 14.1796 19.0535 14.1562 18.8906C14.0721 18.7589 14.0147 18.6792 13.875 18.6094C13.7852 18.6038 13.6953 18.601 13.6054 18.5995C13.5507 18.5981 13.4961 18.5968 13.4397 18.5954C13.3251 18.593 13.2105 18.5909 13.0958 18.5892C12.6294 18.5769 12.1601 18.53 11.8125 18.1875C11.5321 17.8489 11.3991 17.5078 11.4375 17.0625C11.5103 16.6649 11.679 16.3315 12.0153 16.0951C12.2866 15.9463 12.5374 15.9021 12.8437 15.8906C12.8427 15.8646 12.8417 15.8386 12.8407 15.8118C12.8368 15.6936 12.8344 15.5753 12.832 15.457C12.8304 15.4161 12.8288 15.3752 12.8272 15.333C12.8226 15.0308 12.8226 15.0308 12.9265 14.8791C13.0881 14.7763 13.2209 14.774 13.4062 14.8125Z" fill="#6B7280"/>
</g>
<defs>
<clipPath id="clip0_256_169">
<rect width="24" height="24" fill="white"/>
</clipPath>
</defs>
</svg>
