<svg width="24" height="24" viewBox="0 0 24 24" fill="none" xmlns="http://www.w3.org/2000/svg">
<g clip-path="url(#clip0_256_186)">
<path d="M17.4914 8.99175C17.5309 8.99144 17.5704 8.99113 17.611 8.99082C17.742 8.98989 17.873 8.98934 18.004 8.98888C18.071 8.98859 18.071 8.98859 18.1394 8.9883C18.3757 8.98732 18.6121 8.98665 18.8485 8.98621C19.0929 8.98569 19.3373 8.98408 19.5818 8.98222C19.7695 8.98099 19.9572 8.9806 20.1449 8.98043C20.235 8.9802 20.3251 8.97966 20.4153 8.97879C20.5413 8.97765 20.6673 8.97769 20.7933 8.97802C20.8306 8.97742 20.8679 8.97681 20.9064 8.9762C21.0646 8.97769 21.1636 8.9816 21.2908 9.08006C21.3918 9.20898 21.3983 9.26827 21.398 9.43024C21.3984 9.4796 21.3988 9.52895 21.3992 9.57981C21.3986 9.63398 21.3981 9.68815 21.3975 9.74396C21.3977 9.80155 21.3978 9.85913 21.398 9.91846C21.3983 10.0784 21.3977 10.2383 21.3967 10.3982C21.3959 10.5706 21.3962 10.743 21.3963 10.9154C21.3964 11.2142 21.3958 11.5129 21.3948 11.8117C21.3933 12.2436 21.3928 12.6756 21.3925 13.1075C21.3921 13.8083 21.3909 14.5091 21.3891 15.2098C21.3874 15.8906 21.3861 16.5714 21.3853 17.2522C21.3852 17.2942 21.3852 17.3361 21.3851 17.3793C21.3849 17.5898 21.3846 17.8003 21.3844 18.0108C21.3825 19.7572 21.3792 21.5036 21.375 23.25C21.4031 23.2497 21.4313 23.2494 21.4603 23.2491C21.7538 23.246 22.0473 23.2439 22.3409 23.2423C22.4503 23.2416 22.5598 23.2407 22.6693 23.2394C22.8268 23.2377 22.9844 23.2369 23.1419 23.2363C23.1907 23.2356 23.2395 23.2349 23.2898 23.2341C23.5453 23.2341 23.7345 23.2416 23.9531 23.3907C24.0256 23.5356 24.0137 23.6529 24 23.8125C23.9298 23.9154 23.9298 23.9154 23.8125 24C23.676 24.0184 23.5574 24.0252 23.421 24.0236C23.3809 24.0239 23.3409 24.0242 23.2996 24.0245C23.1645 24.0252 23.0294 24.0245 22.8943 24.0239C22.7968 24.0241 22.6993 24.0244 22.6019 24.0247C22.3333 24.0255 22.0647 24.0251 21.7961 24.0246C21.5068 24.0241 21.2174 24.0248 20.928 24.0253C20.3937 24.0261 19.8593 24.026 19.325 24.0255C18.8314 24.025 18.3378 24.0249 17.8442 24.0251C17.8115 24.0252 17.7788 24.0252 17.7451 24.0252C17.6123 24.0252 17.4795 24.0253 17.3467 24.0254C16.1005 24.0259 14.8543 24.0254 13.6082 24.0244C12.5004 24.0235 11.3927 24.0236 10.285 24.0245C9.04113 24.0255 7.79726 24.0259 6.55339 24.0253C6.42085 24.0253 6.2883 24.0252 6.15576 24.0251C6.12312 24.0251 6.09049 24.0251 6.05686 24.0251C5.56351 24.0249 5.07017 24.0251 4.57682 24.0256C4.01599 24.0261 3.45516 24.026 2.89433 24.025C2.60798 24.0245 2.32164 24.0243 2.03529 24.0249C1.77345 24.0255 1.51162 24.0252 1.24978 24.0242C1.15477 24.024 1.05976 24.0241 0.964755 24.0245C0.836144 24.0251 0.707588 24.0245 0.578979 24.0236C0.522945 24.0243 0.522944 24.0243 0.465777 24.025C0.301309 24.0227 0.205419 24.0131 0.0707171 23.9151C-0.0331145 23.7646 -0.0255078 23.6628 -2.88151e-05 23.4844C0.103969 23.3481 0.164945 23.3044 0.328096 23.25C0.40361 23.246 0.479283 23.2445 0.554907 23.2447C0.623868 23.2447 0.623869 23.2447 0.694224 23.2447C0.74374 23.245 0.793254 23.2452 0.84427 23.2455C0.920444 23.2456 0.920444 23.2456 0.998156 23.2457C1.16055 23.2459 1.32293 23.2465 1.48532 23.2471C1.59534 23.2474 1.70535 23.2476 1.81537 23.2478C2.08524 23.2483 2.3551 23.2491 2.62497 23.25C2.62476 23.2087 2.62454 23.1673 2.62432 23.1247C2.61914 22.1185 2.61526 21.1123 2.61283 20.1061C2.61162 19.6195 2.60997 19.1329 2.60729 18.6464C2.60496 18.2223 2.60344 17.7983 2.60292 17.3743C2.60261 17.1497 2.60189 16.9251 2.60019 16.7005C2.5986 16.4892 2.59811 16.2779 2.59846 16.0666C2.5984 15.989 2.59793 15.9114 2.59703 15.8337C2.59587 15.7279 2.59614 15.6221 2.59679 15.5162C2.59657 15.4569 2.59635 15.3976 2.59613 15.3365C2.62497 15.1875 2.62497 15.1875 2.73278 15.0747C2.90373 14.9739 3.0559 14.9745 3.24873 14.9773C3.28733 14.9771 3.32592 14.9769 3.36569 14.9767C3.49288 14.9764 3.62003 14.9774 3.74722 14.9784C3.83577 14.9786 3.92432 14.9786 4.01286 14.9786C4.19826 14.9787 4.38364 14.9795 4.56904 14.9808C4.80669 14.9823 5.04432 14.9827 5.28197 14.9826C5.46474 14.9827 5.6475 14.9832 5.83027 14.9839C5.9179 14.9841 6.00554 14.9843 6.09317 14.9844C6.21559 14.9846 6.33799 14.9854 6.4604 14.9864C6.49662 14.9864 6.53283 14.9863 6.57014 14.9863C6.89548 14.9902 6.89548 14.9902 7.03122 15.0938C7.14168 15.261 7.13654 15.4094 7.13624 15.6064C7.13632 15.6391 7.1364 15.6718 7.13649 15.7055C7.13664 15.815 7.13613 15.9245 7.13561 16.0341C7.13559 16.1126 7.1356 16.1912 7.13566 16.2697C7.13568 16.4829 7.13513 16.6962 7.13448 16.9094C7.13389 17.1323 7.13384 17.3551 7.13372 17.578C7.13343 17.9999 7.13266 18.4219 7.13172 18.8439C7.13068 19.3244 7.13016 19.8048 7.12969 20.2852C7.12871 21.2735 7.12699 22.2618 7.12497 23.25C7.99122 23.25 8.85747 23.25 9.74997 23.25C9.74874 22.9517 9.74752 22.6533 9.74625 22.3458C9.74237 21.3617 9.73977 20.3776 9.73783 19.3935C9.73662 18.7966 9.73497 18.1997 9.73229 17.6028C9.72996 17.0827 9.72844 16.5625 9.72792 16.0424C9.72761 15.7669 9.72689 15.4914 9.72519 15.2159C9.7236 14.9567 9.72311 14.6975 9.72346 14.4383C9.7234 14.3431 9.72293 14.2479 9.72203 14.1527C9.72087 14.0228 9.72115 13.893 9.72179 13.7631C9.72076 13.7064 9.72076 13.7064 9.71972 13.6485C9.72223 13.4603 9.74187 13.37 9.85769 13.2189C10.0277 13.0929 10.1736 13.0921 10.3773 13.0947C10.4358 13.0941 10.4358 13.0941 10.4954 13.0935C10.6239 13.0924 10.7523 13.0931 10.8808 13.0939C10.9703 13.0938 11.0598 13.0935 11.1493 13.0932C11.3367 13.0929 11.5241 13.0934 11.7115 13.0945C11.9516 13.0958 12.1916 13.0951 12.4317 13.0937C12.6164 13.0928 12.8011 13.0931 12.9859 13.0937C13.0744 13.0938 13.1629 13.0936 13.2514 13.0931C13.3752 13.0925 13.4989 13.0934 13.6227 13.0947C13.6591 13.0942 13.6956 13.0938 13.7332 13.0933C13.9061 13.0967 14.0022 13.1151 14.1423 13.2189C14.2811 13.4 14.2821 13.5439 14.2782 13.7631C14.2784 13.8037 14.2786 13.8443 14.2788 13.8861C14.2791 14.0221 14.2779 14.158 14.2766 14.294C14.2765 14.3914 14.2766 14.4889 14.2767 14.5864C14.2768 14.8511 14.2754 15.1157 14.2737 15.3804C14.2723 15.657 14.2721 15.9335 14.2719 16.2101C14.2711 16.7339 14.2692 17.2577 14.2669 17.7814C14.2642 18.3777 14.2629 18.974 14.2618 19.5702C14.2593 20.7969 14.255 22.0234 14.25 23.25C15.1162 23.25 15.9825 23.25 16.875 23.25C16.8742 22.8281 16.8735 22.4062 16.8727 21.9715C16.8705 20.6221 16.8689 19.2728 16.8678 17.9234C16.8676 17.7139 16.8674 17.5044 16.8672 17.2948C16.8672 17.2531 16.8672 17.2114 16.8671 17.1684C16.8665 16.4926 16.8654 15.8168 16.8641 15.141C16.8628 14.4478 16.862 13.7546 16.8617 13.0614C16.8615 12.6335 16.8609 12.2056 16.8598 11.7777C16.8591 11.4845 16.8588 11.1912 16.859 10.898C16.8591 10.7287 16.859 10.5594 16.8582 10.3901C16.8574 10.2066 16.8577 10.0232 16.8581 9.83979C16.8577 9.78612 16.8572 9.73245 16.8568 9.67715C16.8571 9.62803 16.8574 9.5789 16.8577 9.52829C16.8576 9.46477 16.8576 9.46477 16.8575 9.39997C16.8789 9.25449 16.9304 9.16575 17.0156 9.04692C17.1651 8.97217 17.3271 8.9923 17.4914 8.99175ZM17.625 9.75005C17.625 14.205 17.625 18.66 17.625 23.25C18.615 23.25 19.605 23.25 20.625 23.25C20.625 18.795 20.625 14.34 20.625 9.75005C19.635 9.75005 18.645 9.75005 17.625 9.75005ZM10.5 13.875C10.5 16.9688 10.5 20.0625 10.5 23.25C11.49 23.25 12.48 23.25 13.5 23.25C13.5 20.1563 13.5 17.0625 13.5 13.875C12.51 13.875 11.52 13.875 10.5 13.875ZM3.37497 15.75C3.37497 18.225 3.37497 20.7 3.37497 23.25C4.36497 23.25 5.35497 23.25 6.37497 23.25C6.37497 20.775 6.37497 18.3 6.37497 15.75C5.38497 15.75 4.39497 15.75 3.37497 15.75Z" fill="#6B7280"/>
<path d="M22.8374 0.154681C23.0641 0.368616 23.242 0.63129 23.2572 0.947614C23.258 1.01064 23.2586 1.07366 23.259 1.13669C23.2594 1.17116 23.2597 1.20563 23.2601 1.24115C23.2613 1.35531 23.2621 1.46947 23.2628 1.58364C23.263 1.62274 23.2633 1.66185 23.2635 1.70214C23.2648 1.90935 23.2657 2.11657 23.2663 2.32378C23.267 2.49469 23.2683 2.66558 23.2702 2.83648C23.2725 3.04332 23.2737 3.25014 23.274 3.45699C23.2743 3.5355 23.275 3.614 23.2762 3.6925C23.2873 4.51706 23.2873 4.51706 23.0156 4.87496C22.7634 5.12404 22.5059 5.24727 22.1509 5.25124C21.795 5.23001 21.5139 5.12809 21.2665 4.86617C21.1221 4.68515 21.0573 4.48761 20.9999 4.26558C20.942 4.32825 20.8841 4.39092 20.8262 4.45361C20.7753 4.50875 20.7243 4.56388 20.6733 4.619C20.5516 4.75076 20.4301 4.8827 20.31 5.01595C19.8763 5.49535 19.4292 5.9733 18.9347 6.39089C18.8186 6.49013 18.707 6.59376 18.5947 6.69722C18.3865 6.88679 18.1742 7.06863 17.9545 7.24471C17.8468 7.33161 17.7408 7.41967 17.6352 7.50911C17.5732 7.56076 17.5112 7.6124 17.4492 7.66402C17.4204 7.68882 17.3916 7.71361 17.362 7.73916C17.1723 7.89519 17.0348 7.95971 16.7812 7.96871C16.6571 7.9318 16.6111 7.89733 16.5322 7.79586C16.4836 7.63258 16.5055 7.52436 16.5468 7.35933C16.6425 7.25455 16.7266 7.17566 16.8369 7.0898C16.866 7.06592 16.8952 7.04204 16.9253 7.01743C17.0171 6.94282 17.1098 6.86963 17.2031 6.79683C17.2325 6.77381 17.262 6.75079 17.2923 6.72707C17.4055 6.63879 17.5187 6.55056 17.6322 6.46276C17.8189 6.31707 17.9878 6.16199 18.1517 5.9908C18.2317 5.90887 18.3144 5.83421 18.4013 5.75972C18.8053 5.41101 19.2153 5.05403 19.5565 4.6426C19.6699 4.51335 19.7932 4.39458 19.916 4.27437C20.1317 4.06212 20.3251 3.84036 20.5145 3.60402C20.6447 3.44445 20.778 3.28853 20.915 3.13472C20.9378 3.10805 20.9607 3.08138 20.9842 3.05389C21.0966 2.92948 21.1749 2.86309 21.3369 2.81465C21.5 2.81194 21.5737 2.85699 21.7031 2.95308C21.7823 3.03233 21.7588 3.13382 21.7615 3.24239C21.763 3.29194 21.7646 3.34149 21.7661 3.39254C21.769 3.49727 21.7717 3.602 21.7742 3.70674C21.7758 3.75653 21.7774 3.80632 21.7791 3.85762C21.7802 3.90323 21.7814 3.94883 21.7826 3.99582C21.7978 4.13405 21.8268 4.23586 21.8906 4.35933C22.0784 4.45117 22.2062 4.46503 22.4062 4.40621C22.4602 4.24416 22.4597 4.11732 22.4606 3.94634C22.4608 3.91408 22.4611 3.88183 22.4613 3.84859C22.462 3.74198 22.4623 3.63538 22.4626 3.52877C22.4629 3.45469 22.4631 3.38061 22.4634 3.30653C22.4639 3.15127 22.4642 2.99602 22.4643 2.84077C22.4646 2.64168 22.4657 2.44261 22.467 2.24352C22.4679 2.09055 22.4682 1.93759 22.4682 1.78462C22.4684 1.7112 22.4688 1.63779 22.4694 1.56438C22.4702 1.46181 22.4701 1.35928 22.4698 1.2567C22.4699 1.19831 22.4701 1.13993 22.4703 1.07977C22.4636 0.940311 22.4636 0.940311 22.3974 0.848002C22.0795 0.656547 21.4802 0.819681 21.129 0.863666C21.0437 0.87409 21.0437 0.87409 20.9566 0.884725C20.8373 0.899406 20.7181 0.914266 20.5989 0.929297C20.4164 0.952176 20.2338 0.974093 20.0512 0.995959C19.9349 1.0104 19.8186 1.02489 19.7023 1.03945C19.6206 1.04912 19.6206 1.04912 19.5373 1.059C19.4866 1.06556 19.4358 1.07211 19.3836 1.07887C19.3392 1.08439 19.2948 1.08991 19.249 1.09559C19.1069 1.12922 19.0095 1.18152 18.8906 1.26558C18.8169 1.37365 18.8169 1.37365 18.7968 1.49996C18.8264 1.6288 18.8264 1.6288 18.8906 1.73433C19.1471 1.86262 19.5404 1.7844 19.8151 1.7455C19.965 1.72982 20.1139 1.72385 20.2646 1.71968C20.3205 1.71793 20.3764 1.71618 20.434 1.71437C20.5781 1.73433 20.5781 1.73433 20.666 1.81984C20.7504 1.9832 20.7512 2.06676 20.7187 2.24996C20.6105 2.42066 20.4772 2.56742 20.3437 2.71871C20.2845 2.79011 20.2254 2.86152 20.1664 2.93304C19.66 3.54212 19.1038 4.10363 18.5449 4.66402C18.5184 4.69058 18.492 4.71714 18.4648 4.7445C18.1776 5.03265 17.8884 5.31473 17.5781 5.57808C17.5238 5.62594 17.4697 5.67391 17.4156 5.722C17.0158 6.07482 16.6023 6.40401 16.1755 6.7235C16.0833 6.79291 15.9918 6.86317 15.9005 6.93379C12.0947 9.86147 7.40395 11.6488 1.65577 12.3922C1.49167 12.4065 1.35709 12.4221 1.21869 12.5156C1.15211 12.6487 1.15707 12.7431 1.17181 12.8906C1.22706 13.0124 1.22706 13.0124 1.35931 13.0781C2.95779 13.2191 4.79081 12.6863 6.32806 12.2812C6.3829 12.2668 6.43774 12.2525 6.49423 12.2377C9.40791 11.465 12.2715 10.2529 14.7864 8.58193C14.8163 8.56212 14.8461 8.54231 14.8769 8.5219C14.9517 8.47161 15.0258 8.42034 15.0999 8.36898C15.2579 8.28417 15.384 8.25984 15.5624 8.24996C15.7001 8.31734 15.7001 8.31734 15.7968 8.43746C15.8412 8.66671 15.8412 8.66671 15.7968 8.81246C15.5997 9.0428 15.3137 9.20228 15.0585 9.36031C15.0197 9.38457 14.9808 9.40884 14.9407 9.43384C14.5285 9.68955 14.1106 9.93458 13.6874 10.1718C13.6239 10.2074 13.6239 10.2074 13.5592 10.2438C12.0725 11.0727 10.5143 11.8039 8.89372 12.333C8.74286 12.3824 8.59248 12.4331 8.44202 12.4837C6.34118 13.183 4.13767 13.7306 1.92181 13.875C1.87268 13.8785 1.87268 13.8785 1.82255 13.8821C1.41388 13.9089 1.08593 13.8912 0.749939 13.6406C0.526517 13.4358 0.39073 13.2318 0.359192 12.9248C0.35491 12.5364 0.369381 12.2604 0.634766 11.9668C1.00457 11.619 1.45294 11.5934 1.93457 11.5477C4.63468 11.2881 7.3052 10.5898 9.79681 9.51558C9.84398 9.49553 9.89114 9.47548 9.93973 9.45481C10.5591 9.19118 11.1623 8.91029 11.7533 8.58822C11.8597 8.53102 11.9667 8.47566 12.0743 8.42079C13.5659 7.65767 14.9819 6.70145 16.2656 5.62496C16.3515 5.55559 16.4374 5.48625 16.5234 5.41695C16.7442 5.23641 16.956 5.04763 17.1655 4.85408C17.2341 4.79158 17.3028 4.72925 17.3735 4.66918C17.6717 4.41521 17.9465 4.1386 18.2228 3.86132C18.3074 3.77651 18.3922 3.69195 18.477 3.60741C18.8055 3.27916 19.1294 2.95223 19.4062 2.57808C19.354 2.58872 19.3018 2.59935 19.248 2.61031C18.9289 2.64871 18.6331 2.55608 18.3808 2.35836C18.1246 2.11243 18.0175 1.82882 17.9954 1.47725C18.008 1.15119 18.1457 0.840676 18.3749 0.609332C18.7602 0.335364 19.215 0.304664 19.6699 0.25191C19.7477 0.242297 19.8255 0.232611 19.9033 0.222854C20.0573 0.203638 20.2115 0.184876 20.3656 0.166469C20.5487 0.144449 20.7313 0.120122 20.9139 0.0946226C22.4373 -0.11646 22.4373 -0.11646 22.8374 0.154681Z" fill="#6B7280"/>
</g>
<defs>
<clipPath id="clip0_256_186">
<rect width="24" height="24" fill="white"/>
</clipPath>
</defs>
</svg>
