<svg width="24" height="24" viewBox="0 0 24 24" fill="none" xmlns="http://www.w3.org/2000/svg">
<g clip-path="url(#clip0_256_175)">
<path d="M10.4257 1.16984C10.557 1.23227 10.6835 1.30043 10.8106 1.37114C10.8578 1.39662 10.905 1.4221 10.9537 1.44835C11.0998 1.52734 11.2452 1.60737 11.3906 1.68754C11.4751 1.73357 11.5597 1.77953 11.6442 1.82542C11.8123 1.91674 11.9801 2.00848 12.1478 2.10045C12.453 2.26746 12.7596 2.43169 13.0664 2.59575C13.1784 2.65562 13.2903 2.7155 13.4022 2.77537C13.43 2.7902 13.4577 2.80503 13.4862 2.82031C13.9254 3.0553 14.3638 3.29183 14.8023 3.52814C15.0557 3.66467 15.3091 3.8011 15.5625 3.93754C15.6641 3.99223 15.7656 4.04692 15.8672 4.10161C15.9426 4.14221 15.9426 4.14221 16.0195 4.18364C16.5781 4.48442 17.1367 4.7852 17.6953 5.08598C17.7457 5.11309 17.796 5.14019 17.8479 5.16812C17.9488 5.22244 18.0496 5.27679 18.1505 5.33115C18.3867 5.45841 18.6229 5.58551 18.8595 5.71202C18.943 5.75668 19.0265 5.80141 19.11 5.84614C19.2146 5.90216 19.3192 5.95807 19.4238 6.01387C20.1778 6.41821 20.1778 6.41821 20.25 6.56254C20.2547 6.63695 20.2565 6.71155 20.2569 6.7861C20.2574 6.85688 20.2574 6.85688 20.2579 6.9291C20.258 6.98106 20.2582 7.03303 20.2583 7.08657C20.2586 7.14115 20.2589 7.19572 20.2592 7.25195C20.2602 7.43316 20.2607 7.61437 20.2612 7.79558C20.2614 7.85731 20.2616 7.91905 20.2618 7.98266C20.2626 8.27559 20.2633 8.56852 20.2637 8.86145C20.2642 9.19972 20.2654 9.53798 20.2673 9.87624C20.2687 10.1376 20.2694 10.399 20.2696 10.6604C20.2697 10.8166 20.2702 10.9727 20.2713 11.1289C20.2724 11.303 20.2724 11.4772 20.272 11.6514C20.2726 11.7032 20.2732 11.7549 20.2739 11.8083C20.2734 11.8795 20.2734 11.8795 20.2729 11.9521C20.273 11.9933 20.2731 12.0345 20.2732 12.0769C20.2423 12.2242 20.1772 12.2809 20.0625 12.375C19.9688 12.3999 19.9688 12.3999 19.875 12.3985C19.8286 12.3992 19.8286 12.3992 19.7813 12.3999C19.6366 12.3615 19.5897 12.3085 19.5 12.1875C19.4711 12.0359 19.4736 11.8856 19.4744 11.7317C19.4739 11.6855 19.4734 11.6392 19.4729 11.5916C19.4716 11.439 19.4715 11.2863 19.4714 11.1336C19.4707 11.0277 19.47 10.9218 19.4691 10.816C19.467 10.5373 19.4661 10.2587 19.4654 9.97999C19.4645 9.69564 19.4625 9.41129 19.4606 9.12694C19.4571 8.56902 19.4548 8.0111 19.4531 7.45317C19.4025 7.48041 19.4025 7.48041 19.3509 7.5082C13.0547 10.8985 13.0547 10.8985 12.9021 10.9806C12.8013 11.0349 12.7005 11.0892 12.5996 11.1435C12.3629 11.271 12.1262 11.3985 11.8893 11.5257C11.8054 11.5708 11.7216 11.6159 11.6377 11.6609C11.5325 11.7175 11.4273 11.774 11.3221 11.8305C11.1228 11.9376 10.9241 12.0447 10.7291 12.1593C10.5938 12.2344 10.5938 12.2344 10.5 12.2344C10.5155 15.39 10.5309 18.5457 10.5469 21.7969C11.1502 21.4721 11.1502 21.4721 11.7656 21.1407C11.9667 21.0324 12.1678 20.9241 12.375 20.8125C12.4751 20.7586 12.5751 20.7047 12.6782 20.6492C12.8862 20.5372 13.0942 20.4254 13.3023 20.3138C13.3545 20.2857 13.4068 20.2576 13.4607 20.2286C13.5639 20.1732 13.6672 20.1178 13.7706 20.0625C14.0004 19.9392 14.2288 19.8145 14.454 19.6828C14.4921 19.6607 14.5303 19.6386 14.5696 19.6158C14.6388 19.5755 14.7077 19.5345 14.776 19.4927C15.0023 19.3612 15.1599 19.3317 15.4219 19.3594C15.5834 19.4739 15.646 19.5389 15.6826 19.7344C15.6494 19.9116 15.592 19.9781 15.4688 20.1094C15.3588 20.1786 15.2534 20.2389 15.1381 20.2971C15.0896 20.3224 15.0896 20.3224 15.0402 20.3482C14.9352 20.4029 14.8299 20.4568 14.7246 20.5108C14.6515 20.5487 14.5785 20.5868 14.5055 20.6248C14.3963 20.6818 14.287 20.7387 14.1777 20.7955C13.897 20.9411 13.6187 21.0907 13.3418 21.2432C12.9072 21.4818 12.4708 21.7169 12.0331 21.9498C11.7791 22.085 11.5257 22.2211 11.2747 22.3619C11.1911 22.4087 11.1074 22.4553 11.0236 22.5017C10.9194 22.5597 10.8156 22.6182 10.7121 22.6775C10.4381 22.8289 10.2508 22.9314 9.93751 22.875C9.76363 22.8063 9.60268 22.7198 9.43946 22.629C9.3686 22.5907 9.3686 22.5907 9.29631 22.5517C9.15025 22.4727 9.00479 22.3927 8.85938 22.3125C8.77488 22.2665 8.69035 22.2206 8.60578 22.1747C8.43774 22.0833 8.26993 21.9916 8.10224 21.8996C7.79705 21.7326 7.49039 21.5684 7.1836 21.4043C7.07166 21.3445 6.95972 21.2846 6.84778 21.2247C6.82006 21.2099 6.79234 21.1951 6.76378 21.1798C6.32458 20.9448 5.88621 20.7083 5.44771 20.4719C5.19434 20.3354 4.94092 20.199 4.68751 20.0625C4.58594 20.0079 4.48438 19.9532 4.38282 19.8985C4.33255 19.8714 4.28227 19.8443 4.23048 19.8165C3.67188 19.5157 3.11329 19.2149 2.55469 18.9141C2.50435 18.887 2.45401 18.8599 2.40214 18.832C2.30126 18.7776 2.20038 18.7233 2.09952 18.6689C1.86334 18.5417 1.62709 18.4146 1.39051 18.2881C1.30699 18.2434 1.2235 18.1987 1.14002 18.1539C1.03546 18.0979 0.930853 18.042 0.826179 17.9862C0.0721734 17.5819 0.0721734 17.5819 6.91414e-06 17.4375C-0.00490889 17.2962 -0.00692087 17.156 -0.00689173 17.0147C-0.00706407 16.9703 -0.0072363 16.926 -0.00741386 16.8803C-0.00793268 16.7307 -0.00811176 16.5811 -0.00829005 16.4316C-0.00858359 16.3247 -0.00889515 16.2179 -0.00922346 16.111C-0.0100405 15.8201 -0.0105346 15.5292 -0.0109208 15.2382C-0.0111619 15.0566 -0.0114463 14.8751 -0.0117412 14.6935C-0.012532 14.1909 -0.0132185 13.6883 -0.0135579 13.1858C-0.0136474 13.0553 -0.0137373 12.9249 -0.013829 12.7945C-0.0138517 12.762 -0.0138743 12.7296 -0.0138977 12.6962C-0.0142869 12.1707 -0.015475 11.6453 -0.0169969 11.1198C-0.0185458 10.5806 -0.0193755 10.0413 -0.019541 9.50211C-0.0196515 9.19924 -0.0200753 8.89638 -0.0212505 8.59351C-0.0223377 8.30872 -0.0225413 8.02394 -0.022058 7.73915C-0.0220347 7.63447 -0.0223342 7.52978 -0.022975 7.42509C-0.0237992 7.28248 -0.0234756 7.13993 -0.0228562 6.99732C-0.0233704 6.95561 -0.0238843 6.91391 -0.0244141 6.87094C-0.0214656 6.59095 -0.0214658 6.59095 0.0880721 6.44607C0.198791 6.36699 0.309171 6.29979 0.429572 6.23625C0.47767 6.21063 0.525769 6.18501 0.575324 6.15861C0.627169 6.13142 0.679013 6.10423 0.732429 6.07622C0.815094 6.0323 0.89776 5.98838 0.980408 5.94443C1.06598 5.89898 1.15163 5.85367 1.2373 5.80838C1.49753 5.67062 1.75651 5.53052 2.01563 5.39067C2.11719 5.33597 2.21875 5.28128 2.32032 5.22661C2.37059 5.19954 2.42087 5.17247 2.47266 5.14458C4.25001 4.18754 6.02735 3.23051 7.80469 2.27348C7.88021 2.2328 7.88021 2.2328 7.95724 2.19129C8.05807 2.13703 8.15894 2.08288 8.25987 2.02883C8.49728 1.90154 8.73402 1.77332 8.96888 1.6414C9.05224 1.59465 9.13577 1.54821 9.21937 1.50188C9.32434 1.44356 9.42898 1.38463 9.53321 1.325C9.84868 1.1508 10.071 1.02949 10.4257 1.16984ZM9.86024 2.06749C9.81754 2.09011 9.77483 2.11272 9.73084 2.13603C9.68496 2.16108 9.63908 2.18614 9.5918 2.21196C9.51967 2.2505 9.51967 2.2505 9.44609 2.28981C9.29704 2.36968 9.14847 2.45036 9.00001 2.53129C8.95701 2.55463 8.91401 2.57797 8.8697 2.60202C8.66049 2.7156 8.4516 2.82974 8.24287 2.9442C7.93768 3.11121 7.63101 3.27544 7.32423 3.4395C7.21229 3.49937 7.10035 3.55925 6.98841 3.61912C6.96069 3.63395 6.93297 3.64878 6.9044 3.66406C6.61634 3.81819 6.32865 3.97302 6.04102 4.12797C5.99113 4.15486 5.94123 4.18174 5.88982 4.20943C5.78933 4.26358 5.68883 4.31774 5.58834 4.37189C5.33497 4.50842 5.08155 4.64485 4.82813 4.78129C4.72657 4.83598 4.62501 4.89067 4.52344 4.94536C3.91407 5.27348 3.91407 5.27348 3.76155 5.3556C3.66056 5.40999 3.55957 5.46437 3.45858 5.51875C3.22358 5.6453 2.98856 5.77184 2.75351 5.89831C2.67109 5.94265 2.58868 5.987 2.50626 6.03136C2.40349 6.08667 2.3007 6.14196 2.19791 6.19725C1.88657 6.36482 1.57585 6.53352 1.26563 6.70317C1.26563 6.73411 1.26563 6.76504 1.26563 6.79692C1.31047 6.82052 1.35532 6.84411 1.40152 6.86842C1.57124 6.95777 1.74089 7.04727 1.91051 7.13681C1.9833 7.17521 2.05611 7.21357 2.12895 7.25189C2.23491 7.30765 2.3408 7.36354 2.44666 7.41948C2.48154 7.43782 2.51642 7.45616 2.55235 7.47505C2.72031 7.56402 2.8858 7.65519 3.0483 7.75383C3.07778 7.77155 3.10725 7.78926 3.13762 7.80752C3.21685 7.85563 3.29549 7.90471 3.37407 7.95387C3.54719 8.02944 3.61742 8.02358 3.79688 7.96879C3.91369 7.9155 4.02434 7.86069 4.13673 7.79942C4.18498 7.77373 4.18498 7.77373 4.23421 7.74751C4.33865 7.69178 4.44276 7.63547 4.54688 7.57915C4.61947 7.54025 4.69208 7.50138 4.76471 7.46254C5.23314 7.21165 5.69998 6.95778 6.1659 6.70225C6.46503 6.53851 6.76571 6.37766 7.06641 6.21684C7.17835 6.15697 7.29029 6.09709 7.40223 6.03721C7.42995 6.02239 7.45767 6.00756 7.48623 5.99229C7.7743 5.83815 8.06199 5.68332 8.34962 5.52836C8.39951 5.50148 8.44941 5.4746 8.50082 5.44691C8.60131 5.39276 8.70181 5.3386 8.8023 5.28445C9.05567 5.14792 9.30909 5.01149 9.56251 4.87504C9.61272 4.848 9.66293 4.82096 9.71467 4.7931C9.96971 4.65576 10.2248 4.51845 10.4799 4.38121C11.1591 4.01573 11.8376 3.64904 12.5156 3.28129C12.4089 3.16331 12.3031 3.09556 12.1617 3.02366C12.1187 3.0016 12.0758 2.97953 12.0316 2.9568C11.9854 2.93336 11.9392 2.90993 11.8916 2.88579C11.4549 2.66164 11.0227 2.43066 10.5942 2.19128C10.5537 2.16892 10.5133 2.14656 10.4716 2.12352C10.4363 2.10378 10.4009 2.08404 10.3645 2.0637C10.1566 1.96267 10.067 1.9563 9.86024 2.06749ZM13.1552 3.80644C13.1121 3.82891 13.0689 3.85137 13.0244 3.87452C12.9539 3.91152 12.9539 3.91152 12.8818 3.94926C12.8331 3.97474 12.7844 4.00022 12.7342 4.02648C12.3721 4.2165 12.0125 4.41078 11.6539 4.60741C11.3056 4.79835 10.9558 4.98654 10.6055 5.17387C10.4935 5.23375 10.3816 5.29362 10.2697 5.3535C10.2419 5.36833 10.2142 5.38316 10.1857 5.39843C9.89758 5.55256 9.6099 5.70739 9.32227 5.86235C9.27238 5.88923 9.22248 5.91611 9.17107 5.94381C9.07058 5.99796 8.97008 6.05211 8.86959 6.10627C8.61622 6.2428 8.3628 6.37923 8.10938 6.51567C8.00782 6.57036 7.90626 6.62504 7.80469 6.67973C7.19532 7.00786 7.19532 7.00786 7.04282 7.08997C6.94178 7.14438 6.84075 7.1988 6.73973 7.25323C6.47781 7.39434 6.21576 7.53519 5.9535 7.67564C5.87247 7.7191 5.87247 7.7191 5.7898 7.76344C5.68767 7.81821 5.5855 7.87291 5.48328 7.9275C5.15108 8.10581 4.82451 8.29248 4.50001 8.48442C4.65329 8.61303 4.80236 8.71491 4.98066 8.8054C5.02798 8.82971 5.07529 8.85402 5.12404 8.87907C5.22739 8.93133 5.33081 8.98344 5.43429 9.03542C5.68624 9.16313 5.93017 9.29251 6.16553 9.44902C6.52351 9.70356 6.52351 9.70356 6.93925 9.79092C7.1461 9.73231 7.31416 9.61322 7.48872 9.4912C7.68743 9.36013 7.90298 9.25949 8.11524 9.15239C8.51262 8.94564 8.90661 8.73297 9.29936 8.51758C9.64767 8.32668 9.9974 8.13852 10.3477 7.95122C10.4595 7.8914 10.5713 7.83159 10.6831 7.77177C10.7108 7.75695 10.7385 7.74214 10.7671 7.72687C11.489 7.34062 12.2093 6.95139 12.9289 6.56098C13.2645 6.3791 13.6009 6.19862 13.9375 6.01862C14.1292 5.91604 14.3209 5.81325 14.5126 5.71046C14.6182 5.65383 14.7239 5.59725 14.8296 5.54072C14.9754 5.46265 15.121 5.38423 15.2666 5.30571C15.3103 5.28238 15.3541 5.25905 15.3991 5.23502C15.4387 5.21357 15.4783 5.19212 15.5191 5.17003C15.5537 5.15143 15.5883 5.13283 15.624 5.11367C15.7108 5.06711 15.7108 5.06711 15.75 4.96879C15.7156 4.95044 15.6813 4.93209 15.6459 4.91318C15.4833 4.82629 15.3208 4.73935 15.1582 4.65239C15.1288 4.63665 15.0994 4.62091 15.069 4.60469C14.6147 4.36162 14.1617 4.11637 13.7106 3.86755C13.6709 3.84575 13.6312 3.82396 13.5903 3.8015C13.5557 3.78241 13.5211 3.76332 13.4854 3.74365C13.347 3.67288 13.2899 3.73626 13.1552 3.80644ZM16.2195 5.64757C16.1874 5.66463 16.1554 5.6817 16.1224 5.69929C16.0176 5.75522 15.9131 5.81171 15.8086 5.86821C15.7358 5.9072 15.663 5.94616 15.5902 5.98509C15.3776 6.09894 15.1653 6.21348 14.9531 6.32817C14.899 6.35735 14.8449 6.38654 14.7892 6.41661C14.5612 6.5397 14.3334 6.66321 14.1057 6.78703C13.7933 6.9568 13.4796 7.12439 13.166 7.29204C12.7764 7.50034 12.3875 7.7098 12 7.92192C11.5309 8.17869 11.0596 8.43135 10.588 8.6836C10.5603 8.69841 10.5326 8.71323 10.504 8.7285C10.4763 8.74333 10.4486 8.75815 10.42 8.77343C9.98262 9.00747 9.54603 9.24303 9.10932 9.47838C8.85638 9.61468 8.60339 9.75089 8.3504 9.8871C8.21964 9.9575 8.08889 10.0279 7.95814 10.0983C7.88355 10.1385 7.80897 10.1786 7.73438 10.2188C7.84109 10.3368 7.94689 10.4045 8.08832 10.4764C8.15274 10.5095 8.15274 10.5095 8.21846 10.5433C8.26464 10.5667 8.31082 10.5902 8.35841 10.6143C8.79513 10.8385 9.22728 11.0694 9.65586 11.3088C9.69629 11.3312 9.73673 11.3535 9.77839 11.3766C9.81375 11.3963 9.84911 11.416 9.88554 11.4364C9.9853 11.4849 10.0615 11.519 10.1719 11.5313C10.2799 11.4953 10.2799 11.4953 10.3898 11.4326C10.4538 11.3987 10.4538 11.3987 10.5192 11.3641C10.5651 11.339 10.6109 11.3139 10.6582 11.2881C10.7303 11.2496 10.7303 11.2496 10.8039 11.2103C10.953 11.1304 11.1015 11.0497 11.25 10.9688C11.293 10.9455 11.336 10.9221 11.3803 10.8981C11.5895 10.7845 11.7984 10.6703 12.0071 10.5559C12.3123 10.3889 12.619 10.2246 12.9258 10.0606C13.0377 10.0007 13.1497 9.94084 13.2616 9.88096C13.3032 9.85872 13.3032 9.85872 13.3456 9.83603C13.6337 9.6819 13.9214 9.52707 14.209 9.37211C14.2589 9.34523 14.3088 9.31835 14.3602 9.29066C14.4607 9.23651 14.5612 9.18235 14.6617 9.12819C14.915 8.99167 15.1685 8.85524 15.4219 8.71879C15.5234 8.66411 15.625 8.60942 15.7266 8.55473C16.3359 8.22661 16.3359 8.22661 16.4885 8.14448C16.5895 8.0901 16.6904 8.03572 16.7914 7.98134C17.0264 7.85479 17.2615 7.72825 17.4965 7.60178C17.5789 7.55744 17.6613 7.51309 17.7438 7.46873C17.8465 7.41342 17.9493 7.35812 18.0521 7.30284C18.3634 7.13527 18.6742 6.96657 18.9844 6.79692C18.9844 6.76598 18.9844 6.73504 18.9844 6.70317C18.9395 6.67957 18.8947 6.65598 18.8485 6.63167C18.6788 6.54232 18.5091 6.45282 18.3395 6.36328C18.2667 6.32488 18.1939 6.28652 18.1211 6.2482C18.0151 6.19244 17.9092 6.13656 17.8034 6.08061C17.7685 6.06224 17.7337 6.04386 17.6979 6.02494C17.5296 5.93551 17.3629 5.84429 17.1984 5.74791C17.1536 5.72165 17.1536 5.72165 17.1078 5.69486C17.0272 5.64726 16.947 5.59905 16.8668 5.5508C16.6113 5.42271 16.4485 5.52277 16.2195 5.64757ZM0.750007 7.40629C0.750007 10.5774 0.750007 13.7485 0.750007 17.0157C1.24501 17.2786 1.74001 17.5416 2.25001 17.8125C2.77735 18.0997 2.77735 18.0997 3.02198 18.2337C3.32227 18.3979 3.624 18.5593 3.92579 18.7207C3.95349 18.7356 3.9812 18.7504 4.00974 18.7657C4.03746 18.7805 4.06517 18.7953 4.09372 18.8106C4.14968 18.8405 4.20564 18.8704 4.2616 18.9004C4.28932 18.9152 4.31704 18.93 4.3456 18.9453C4.78481 19.1803 5.22318 19.4168 5.66167 19.6531C5.91504 19.7897 6.16847 19.9261 6.42188 20.0625C6.52344 20.1172 6.62501 20.1719 6.72657 20.2266C6.80198 20.2672 6.80198 20.2672 6.87891 20.3086C7.33594 20.5547 7.33594 20.5547 7.48852 20.6369C7.58931 20.6912 7.69011 20.7454 7.79092 20.7997C8.02818 20.9274 8.26542 21.0552 8.50255 21.1832C8.58676 21.2286 8.67097 21.2741 8.75519 21.3195C8.86105 21.3766 8.96688 21.4337 9.0727 21.4909C9.1205 21.5166 9.16829 21.5424 9.21754 21.569C9.25937 21.5915 9.30119 21.6141 9.34429 21.6374C9.47844 21.7083 9.61429 21.7759 9.75001 21.8438C9.75001 18.6727 9.75001 15.5016 9.75001 12.2344C9.25501 11.9715 8.76001 11.7085 8.25001 11.4375C7.69044 11.1299 7.69044 11.1299 7.46943 11.0067C7.33536 10.9182 7.33536 10.9182 7.26563 10.9219C7.26546 10.9573 7.26529 10.9927 7.26511 11.0292C7.26334 11.363 7.26067 11.6968 7.25701 12.0307C7.25516 12.2023 7.25365 12.3739 7.25293 12.5455C7.25222 12.7112 7.25061 12.8768 7.24837 13.0424C7.24733 13.1363 7.24723 13.2302 7.24715 13.3241C7.24622 13.3813 7.2453 13.4386 7.24435 13.4975C7.24393 13.5479 7.24351 13.5983 7.24308 13.6502C7.2128 13.8134 7.16219 13.8694 7.03126 13.9688C6.77468 14.0041 6.59882 13.9376 6.37922 13.8143C6.34918 13.7981 6.31914 13.7819 6.28819 13.7653C6.19079 13.7127 6.09394 13.6591 5.99708 13.6055C5.92951 13.5688 5.8619 13.5321 5.79426 13.4955C5.62718 13.4048 5.46051 13.3134 5.29395 13.2218C5.16454 13.1507 5.03471 13.0805 4.90485 13.0102C4.69902 12.8988 4.49371 12.7865 4.28868 12.6736C4.16699 12.6067 4.04503 12.5404 3.92304 12.4741C3.84485 12.4313 3.76666 12.3885 3.68848 12.3457C3.65257 12.3263 3.61665 12.3069 3.57965 12.2869C3.33347 12.1513 3.33347 12.1513 3.28126 12.0469C3.27558 11.9416 3.27294 11.8362 3.27163 11.7308C3.27117 11.6983 3.2707 11.6658 3.27023 11.6324C3.26874 11.5248 3.26758 11.4173 3.26643 11.3097C3.26546 11.2353 3.26448 11.1608 3.26347 11.0863C3.26088 10.8901 3.25857 10.6939 3.25631 10.4977C3.25396 10.2975 3.25134 10.0974 3.24876 9.89726C3.24371 9.50444 3.23896 9.11162 3.23438 8.71879C3.20465 8.70335 3.17492 8.68791 3.14429 8.67199C2.07679 8.11711 2.07679 8.11711 1.59669 7.85161C1.51426 7.80613 1.43181 7.76072 1.34931 7.71538C1.31493 7.69637 1.28056 7.67737 1.24514 7.65779C1.08176 7.57076 0.915577 7.48908 0.750007 7.40629ZM4.03126 9.18754C4.02175 9.53037 4.01518 9.87316 4.01066 10.2161C4.00877 10.3327 4.00621 10.4493 4.00297 10.566C3.99842 10.7336 3.99629 10.9012 3.99464 11.069C3.9927 11.1211 3.99076 11.1732 3.98877 11.2269C3.98184 11.4878 3.98184 11.4878 4.10511 11.7049C4.2028 11.7674 4.29971 11.8139 4.40626 11.8594C4.46365 11.8907 4.52078 11.9224 4.5776 11.9547C4.6354 11.9855 4.69328 12.0162 4.75123 12.0467C4.78266 12.0634 4.81409 12.0801 4.84647 12.0973C4.91245 12.1323 4.97847 12.1672 5.04452 12.2021C5.14374 12.2545 5.24284 12.3071 5.34193 12.3598C5.71504 12.5576 6.0901 12.7505 6.46876 12.9375C6.47827 12.5947 6.48483 12.2519 6.48936 11.909C6.49124 11.7924 6.4938 11.6757 6.49705 11.5591C6.5016 11.3914 6.50372 11.2239 6.50538 11.0561C6.50731 11.004 6.50925 10.9519 6.51124 10.8982C6.51818 10.6373 6.51818 10.6373 6.39491 10.4202C6.29722 10.3577 6.20031 10.3112 6.09376 10.2657C6.03636 10.2344 5.97923 10.2027 5.92242 10.1704C5.86462 10.1396 5.80674 10.1089 5.74879 10.0784C5.71736 10.0617 5.68593 10.045 5.65355 10.0278C5.58756 9.99278 5.52155 9.95785 5.4555 9.92298C5.35628 9.87058 5.25717 9.81798 5.15809 9.76533C4.78497 9.56749 4.40992 9.3746 4.03126 9.18754Z" fill="#6B7280"/>
<path d="M22.0313 13.6875C22.0712 13.7101 22.1111 13.7328 22.1522 13.7561C23.036 14.3045 23.6618 15.2076 23.9268 16.207C24.1051 16.9739 24.0936 17.8716 23.8126 18.6094C23.7855 18.6839 23.7855 18.6839 23.7578 18.7599C23.3468 19.816 22.5582 20.622 21.5245 21.082C21.4284 21.1188 21.3317 21.1539 21.2344 21.1875C21.1819 21.2059 21.1294 21.2243 21.0753 21.2433C20.0562 21.5496 18.9191 21.4495 17.9784 20.9593C16.9422 20.3944 16.2263 19.5394 15.8702 18.416C15.638 17.6143 15.662 16.6775 15.9376 15.8906C15.954 15.842 15.9704 15.7934 15.9874 15.7434C16.3999 14.649 17.2317 13.8743 18.2819 13.3988C19.5151 12.8766 20.8912 13.0344 22.0313 13.6875ZM17.4317 14.9414C16.766 15.6256 16.5266 16.4642 16.5264 17.3958C16.5341 17.8195 16.6185 18.1735 16.7813 18.5625C16.7993 18.6065 16.8173 18.6506 16.8359 18.696C16.9741 19.0002 17.1706 19.2504 17.3907 19.5C17.4225 19.5363 17.4544 19.5726 17.4872 19.61C18.1016 20.2672 18.9403 20.5758 19.8248 20.623C20.7385 20.6419 21.5491 20.2673 22.2056 19.6523C22.8716 18.9955 23.2113 18.2176 23.2178 17.2793C23.2193 16.3076 22.8747 15.5361 22.21 14.833C20.8224 13.4921 18.7861 13.6504 17.4317 14.9414Z" fill="#6B7280"/>
<path d="M21.5625 15.9375C21.6797 16.0078 21.6797 16.0078 21.75 16.125C21.7785 16.2804 21.7899 16.353 21.75 16.5C21.6888 16.5876 21.6888 16.5876 21.6082 16.6753C21.5784 16.7079 21.5486 16.7405 21.5178 16.7741C21.3589 16.9413 21.1977 17.1059 21.0343 17.2688C20.9986 17.3046 20.9628 17.3404 20.926 17.3772C20.8512 17.4521 20.7763 17.5269 20.7014 17.6016C20.5863 17.7164 20.4715 17.8315 20.3567 17.9466C20.2838 18.0195 20.2108 18.0924 20.1378 18.1653C20.1034 18.1998 20.0691 18.2342 20.0336 18.2697C20.0019 18.3014 19.9701 18.333 19.9373 18.3656C19.9094 18.3935 19.8814 18.4214 19.8526 18.4502C19.7203 18.5715 19.5932 18.5872 19.4152 18.5842C19.2889 18.5574 19.2359 18.5129 19.1413 18.4257C19.0927 18.381 19.0927 18.381 19.0431 18.3354C18.8503 18.1507 18.6601 17.9636 18.4717 17.7744C18.4313 17.7342 18.3909 17.6939 18.3493 17.6525C18.2918 17.5949 18.2918 17.5949 18.2331 17.5361C18.1985 17.5014 18.1638 17.4667 18.128 17.4309C17.9917 17.2843 17.9834 17.1671 17.9874 16.9676C18 16.875 18 16.875 18.0704 16.7578C18.2026 16.6784 18.3081 16.652 18.4628 16.6611C18.6668 16.715 18.794 16.8683 18.9375 17.0156C18.9836 17.0612 19.0296 17.1067 19.0758 17.1522C19.2026 17.2775 19.3281 17.4041 19.4532 17.5312C19.5912 17.469 19.6878 17.4017 19.7939 17.2942C19.837 17.2508 19.837 17.2508 19.8811 17.2065C19.9116 17.1753 19.9421 17.1442 19.9736 17.1121C20.0212 17.0641 20.0212 17.0641 20.0698 17.0151C20.1711 16.9129 20.2721 16.8105 20.3731 16.708C20.4744 16.6053 20.5758 16.5028 20.6774 16.4003C20.7405 16.3366 20.8035 16.2728 20.8664 16.2088C20.9092 16.1656 20.9092 16.1656 20.9527 16.1216C20.9903 16.0834 20.9903 16.0834 21.0286 16.0445C21.1821 15.9028 21.365 15.9105 21.5625 15.9375Z" fill="#6B7280"/>
</g>
<defs>
<clipPath id="clip0_256_175">
<rect width="24" height="24" fill="white"/>
</clipPath>
</defs>
</svg>
