<svg width="24" height="24" viewBox="0 0 24 24" fill="none" xmlns="http://www.w3.org/2000/svg">
<g clip-path="url(#clip0_256_180)">
<path d="M0.826261 1.96192C0.88044 1.96162 0.93462 1.96133 0.990441 1.96102C1.04918 1.96097 1.10791 1.96091 1.16843 1.96086C1.2291 1.9607 1.28977 1.96055 1.35228 1.96039C1.48109 1.96011 1.60991 1.96002 1.73872 1.96005C1.90192 1.96005 2.06511 1.95942 2.22831 1.9586C2.38576 1.95795 2.5432 1.95799 2.70065 1.95793C2.75835 1.95759 2.81604 1.95726 2.87548 1.95691C3.78111 1.95925 4.60377 2.14295 5.28519 2.77733C5.8287 3.36245 6.02053 4.09554 6.17793 4.85478C6.20247 4.97306 6.22776 5.09115 6.25317 5.20924C6.26924 5.28489 6.28526 5.36054 6.30124 5.4362C6.30871 5.47126 6.31617 5.50632 6.32387 5.54244C6.35632 5.6998 6.37503 5.83842 6.37503 5.99998C7.25675 5.99998 8.13847 5.99998 9.04691 5.99998C9.05174 6.20591 9.05657 6.41184 9.06155 6.62401C9.07884 7.17616 9.11708 7.70989 9.23441 8.24998C9.24213 8.28579 9.24986 8.3216 9.25782 8.3585C9.72748 10.4592 11.0262 12.3739 12.8399 13.543C12.9958 13.641 13.1536 13.7352 13.3125 13.8281C13.3408 13.8448 13.3691 13.8616 13.3983 13.8788C14.3821 14.4536 15.508 14.7962 16.6407 14.9062C16.6874 14.9109 16.6874 14.9109 16.7352 14.9158C18.7528 15.1066 20.8676 14.5418 22.479 13.3015C22.5938 13.2187 22.5938 13.2187 22.6875 13.2187C22.5571 13.9285 22.4153 14.6359 22.267 15.3421C22.2486 15.43 22.2304 15.5179 22.2124 15.6059C22.1867 15.7313 22.1602 15.8566 22.1336 15.9818C22.1261 16.0191 22.1186 16.0563 22.1109 16.0947C22.0451 16.3984 21.9526 16.6778 21.7237 16.8955C21.5481 17.0081 21.4162 17.0215 21.2121 17.0217C21.1585 17.0219 21.1048 17.0221 21.0495 17.0222C20.9903 17.0222 20.9311 17.0221 20.8701 17.0221C20.8067 17.0222 20.7434 17.0223 20.68 17.0225C20.5056 17.0228 20.3312 17.0229 20.1567 17.023C19.9687 17.023 19.7808 17.0234 19.5928 17.0237C19.2669 17.0243 18.941 17.0247 18.6151 17.0249C18.1001 17.0254 17.5851 17.0264 17.0701 17.0274C16.894 17.0278 16.7179 17.0281 16.5418 17.0285C16.4757 17.0286 16.4757 17.0286 16.4084 17.0287C15.9072 17.0297 15.4059 17.0306 14.9047 17.0314C14.8589 17.0315 14.8131 17.0316 14.7658 17.0317C14.0231 17.0329 13.2804 17.0338 12.5376 17.0346C11.7754 17.0354 11.0131 17.0367 10.2509 17.0385C9.78057 17.0396 9.31025 17.0403 8.83991 17.0404C8.51764 17.0405 8.19537 17.0411 7.8731 17.0421C7.68708 17.0427 7.50108 17.043 7.31506 17.0427C7.14478 17.0425 6.97451 17.0429 6.80423 17.0438C6.71344 17.0441 6.62264 17.0437 6.53184 17.0433C6.15156 17.0432 6.15156 17.0432 5.81253 17.2031C5.61285 17.4244 5.5653 17.5563 5.56717 17.8473C5.58166 17.9869 5.63712 18.0752 5.71878 18.1875C5.71878 18.2184 5.71878 18.2494 5.71878 18.2812C5.75552 18.2957 5.79226 18.3102 5.83011 18.3252C5.95316 18.375 5.95316 18.375 6.04691 18.4219C6.13034 18.4263 6.21395 18.4278 6.29751 18.4278C6.37778 18.428 6.37778 18.428 6.45967 18.4283C6.51897 18.4282 6.57826 18.4281 6.63935 18.428C6.70258 18.4281 6.76582 18.4282 6.82905 18.4283C6.96693 18.4285 7.1048 18.4286 7.24268 18.4286C7.46699 18.4285 7.69131 18.4287 7.91562 18.429C8.24133 18.4294 8.56704 18.4296 8.89274 18.4298C9.40756 18.43 9.92238 18.4308 10.4372 18.4317C10.6133 18.432 10.7893 18.4323 10.9654 18.4326C11.0094 18.4327 11.0534 18.4327 11.0987 18.4328C11.5999 18.4337 12.1011 18.4344 12.6023 18.4351C12.6481 18.4352 12.6939 18.4353 12.7412 18.4353C13.4835 18.4363 14.2259 18.4369 14.9683 18.4372C15.7302 18.4376 16.4921 18.4387 17.2541 18.4404C17.7241 18.4414 18.1942 18.4419 18.6643 18.4416C18.9865 18.4414 19.3088 18.442 19.631 18.443C19.817 18.4436 20.0029 18.4439 20.1888 18.4434C20.3591 18.4429 20.5294 18.4433 20.6998 18.4444C20.7903 18.4447 20.8809 18.4441 20.9715 18.4435C21.2996 18.4466 21.5197 18.4757 21.7969 18.6562C21.9923 18.9018 22.0569 19.0933 22.0313 19.4062C21.9464 19.6534 21.8328 19.8255 21.6094 19.9687C21.4634 20.0174 21.3625 20.0216 21.2094 20.0219C21.1551 20.0221 21.1008 20.0223 21.0449 20.0225C20.985 20.0225 20.9251 20.0225 20.8634 20.0225C20.7993 20.0227 20.7352 20.0228 20.6712 20.023C20.4947 20.0235 20.3182 20.0237 20.1417 20.0238C19.9515 20.024 19.7613 20.0244 19.5711 20.0248C19.1115 20.0258 18.6519 20.0262 18.1923 20.0267C17.9758 20.0269 17.7593 20.0271 17.5428 20.0274C16.8229 20.0282 16.103 20.0288 15.3832 20.0292C15.1963 20.0293 15.0095 20.0294 14.8226 20.0294C14.7762 20.0295 14.7297 20.0295 14.6819 20.0295C13.9301 20.0299 13.1783 20.0311 12.4266 20.0326C11.6545 20.0342 10.8825 20.035 10.1105 20.0352C9.67708 20.0353 9.24371 20.0357 8.81033 20.0369C8.4411 20.0379 8.07188 20.0383 7.70265 20.0378C7.5144 20.0376 7.32618 20.0377 7.13794 20.0386C6.96524 20.0394 6.79256 20.0394 6.61985 20.0386C6.52855 20.0385 6.43725 20.0392 6.34596 20.04C5.76995 20.0359 5.28623 19.8998 4.82816 19.5469C4.78658 19.5179 4.74501 19.4889 4.70218 19.459C4.28463 19.0753 4.01231 18.5359 3.9725 17.972C3.94603 17.3106 4.10964 16.7263 4.53812 16.2101C4.94469 15.7765 5.49671 15.4877 6.09717 15.4651C6.20352 15.4641 6.3097 15.4646 6.41605 15.4658C6.48199 15.4663 6.54793 15.4669 6.61387 15.4674C6.70447 15.468 6.70447 15.468 6.79691 15.4687C6.78544 15.4243 6.77397 15.3798 6.76215 15.334C6.63942 14.8534 6.53231 14.3708 6.4313 13.8852C6.41442 13.8047 6.39753 13.7241 6.38063 13.6435C6.34453 13.4713 6.30853 13.2991 6.2726 13.1269C6.21532 12.8524 6.15783 12.5779 6.10031 12.3035C5.98818 11.7683 5.87627 11.2331 5.76439 10.6979C5.62287 10.021 5.48123 9.34409 5.33944 8.66726C5.29187 8.44015 5.24434 8.21304 5.19691 7.98591C5.10089 7.5261 5.00438 7.06641 4.90675 6.60694C4.852 6.34869 4.79847 6.09022 4.74561 5.83158C4.70924 5.65456 4.67212 5.4777 4.63483 5.30087C4.61739 5.21734 4.60027 5.13374 4.58349 5.05008C4.43815 4.30529 4.43815 4.30529 3.94339 3.75291C3.56979 3.5273 3.14677 3.54994 2.72611 3.55131C2.66343 3.55103 2.60076 3.55067 2.53808 3.55025C2.27372 3.54852 2.00937 3.54764 1.745 3.54817C1.58256 3.54844 1.42015 3.54758 1.25772 3.54602C1.16664 3.54547 1.07556 3.54617 0.984481 3.5469C0.644994 3.54316 0.399221 3.51384 0.140656 3.28123C-0.0295439 3.07059 -0.0235157 2.88113 -0.016448 2.61931C0.0134247 2.37468 0.130827 2.25428 0.307649 2.09471C0.483748 1.97279 0.617325 1.96271 0.826261 1.96192Z" fill="white"/>
<path d="M21.3779 1.22171C22.6076 2.21855 23.4383 3.38282 23.8594 4.92191C23.8683 4.95345 23.8772 4.98499 23.8864 5.01749C24.131 5.92372 24.1175 7.1621 23.8594 8.06253C23.8431 8.11969 23.8431 8.11969 23.8265 8.178C23.5016 9.287 22.9802 10.2355 22.1719 11.0625C22.1349 11.1024 22.0979 11.1423 22.0598 11.1834C21.0912 12.2034 19.7538 12.7874 18.375 12.9844C18.3352 12.9905 18.2954 12.9966 18.2543 13.0029C16.6694 13.2047 14.9187 12.7709 13.6501 11.792C13.6 11.7521 13.5499 11.7121 13.5 11.6719C13.4739 11.6513 13.4478 11.6307 13.421 11.6095C12.0981 10.5578 11.2635 9.07287 11.0156 7.40628C11.0095 7.36683 11.0033 7.32737 10.9969 7.28672C10.7924 5.68667 11.2196 3.96428 12.1875 2.67191C12.218 2.631 12.2485 2.59009 12.28 2.54795C12.7575 1.93834 13.3123 1.39691 13.9687 0.984408C13.9975 0.966182 14.0263 0.947956 14.056 0.929179C16.2446 -0.432797 19.3157 -0.370163 21.3779 1.22171ZM18.6773 4.26785C18.5504 4.42086 18.4172 4.56602 18.2812 4.71097C18.1102 4.89357 17.9458 5.07816 17.7891 5.27347C17.6103 5.49627 17.4201 5.70484 17.2246 5.91284C17.0326 6.11855 16.8568 6.33301 16.6846 6.55576C16.5941 6.65593 16.5267 6.69453 16.4062 6.75003C16.3699 6.71268 16.3335 6.67532 16.296 6.63683C16.1599 6.49727 16.0231 6.35835 15.8861 6.2196C15.8271 6.15967 15.7683 6.09956 15.7096 6.03929C15.6249 5.95226 15.5396 5.86587 15.4541 5.77957C15.4283 5.75286 15.4026 5.72614 15.3761 5.69862C15.1587 5.48108 14.9253 5.32585 14.6191 5.27036C14.294 5.2708 14.0753 5.3128 13.8281 5.53128C13.6256 5.74981 13.5332 5.92361 13.5293 6.22269C13.528 6.26885 13.5266 6.31502 13.5253 6.36258C13.5881 6.80745 13.8972 7.08063 14.2026 7.38211C14.2488 7.42839 14.2951 7.4747 14.3413 7.52104C14.4378 7.61761 14.5346 7.71386 14.6317 7.80987C14.7555 7.93235 14.8786 8.05554 15.0014 8.17898C15.0967 8.27455 15.1923 8.36978 15.288 8.4649C15.3335 8.51018 15.3788 8.55555 15.4241 8.60102C15.7585 8.93608 16.0337 9.20848 16.524 9.23899C16.8354 9.22676 17.0841 9.08301 17.2969 8.85941C17.3997 8.73746 17.4995 8.61344 17.599 8.4888C17.7259 8.33244 17.8622 8.18585 18 8.03909C18.1711 7.8565 18.3355 7.67191 18.4922 7.4766C18.6712 7.25342 18.862 7.04475 19.0574 6.83609C19.2035 6.6792 19.3423 6.51893 19.4766 6.3516C19.6333 6.15628 19.7977 5.97172 19.9687 5.78909C20.2159 5.52504 20.4467 5.25201 20.6719 4.96878C20.7047 4.92914 20.7376 4.88951 20.7715 4.84867C20.9844 4.57192 20.9883 4.32732 20.9531 3.98441C20.8729 3.70605 20.7206 3.53564 20.4844 3.37503C19.6666 2.99338 19.1399 3.68984 18.6773 4.26785Z" fill="white"/>
<path d="M19.1279 21.0733C19.5241 21.2917 19.8087 21.6026 19.9739 22.0231C20.0818 22.408 20.0596 22.8288 19.8904 23.1916C19.6592 23.5827 19.3317 23.8799 18.8906 24.0001C18.3556 24.0482 17.9018 24.0078 17.4697 23.6631C17.1445 23.3563 16.9708 22.9543 16.9541 22.5088C16.9665 22.0528 17.1149 21.6995 17.4375 21.3751C17.9091 20.9979 18.5467 20.8361 19.1279 21.0733Z" fill="white"/>
<path d="M11.2449 21.1285C11.636 21.3618 11.8793 21.6846 12 22.125C12.0468 22.6453 12.0164 23.0969 11.6836 23.5224C11.4184 23.8064 11.0881 23.9808 10.7 24.0157C10.197 24.027 9.78248 23.9684 9.39992 23.6111C9.05334 23.2256 8.97274 22.8171 8.98536 22.3119C9.0076 21.9188 9.17695 21.5905 9.46876 21.3281C9.97214 20.9496 10.6672 20.8513 11.2449 21.1285Z" fill="white"/>
</g>
<defs>
<clipPath id="clip0_256_180">
<rect width="24" height="24" fill="white"/>
</clipPath>
</defs>
</svg>
