<svg width="24" height="24" viewBox="0 0 24 24" fill="none" xmlns="http://www.w3.org/2000/svg">
<g clip-path="url(#clip0_256_166)">
<path d="M1.90316 2.4778C1.95664 2.47754 2.01012 2.47727 2.06522 2.47699C2.12371 2.47694 2.1822 2.47689 2.24247 2.47683C2.33511 2.47648 2.33511 2.47648 2.42962 2.47613C2.59903 2.47551 2.76844 2.47521 2.93785 2.475C3.04389 2.47487 3.14993 2.47467 3.25597 2.47446C3.58829 2.47382 3.92062 2.47337 4.25295 2.47319C4.63549 2.47298 5.01802 2.47216 5.40056 2.4708C5.69687 2.46978 5.99317 2.46931 6.28948 2.46925C6.46613 2.4692 6.64278 2.46893 6.81943 2.46809C6.98595 2.46731 7.15246 2.46722 7.31899 2.46762C7.40834 2.46768 7.49768 2.46704 7.58703 2.46637C8.34527 2.47 8.94438 2.69008 9.49747 3.21278C9.6671 3.38769 9.81946 3.57384 9.96975 3.76546C10.0937 3.92328 10.2191 4.07986 10.3447 4.23634C10.3698 4.26813 10.3948 4.29991 10.4207 4.33266C10.6283 4.59156 10.831 4.81801 11.1562 4.92189C11.3142 4.93602 11.3142 4.93602 11.4888 4.93399C11.5218 4.93417 11.5547 4.93434 11.5887 4.93452C11.6988 4.93498 11.8089 4.93479 11.9191 4.9346C11.9982 4.93481 12.0773 4.93506 12.1563 4.93534C12.3266 4.93588 12.4968 4.93614 12.6671 4.93618C12.9366 4.93627 13.2061 4.93712 13.4756 4.93809C14.1453 4.9404 14.815 4.94184 15.4847 4.94284C16.0048 4.94362 16.5248 4.94469 17.0449 4.94673C17.3125 4.94775 17.58 4.94813 17.8476 4.94803C18.0147 4.94811 18.1817 4.94877 18.3487 4.94958C18.4258 4.94984 18.5028 4.94987 18.5798 4.94963C19.2852 4.94769 19.9103 5.04822 20.4518 5.53804C20.8461 5.96966 21.0242 6.44738 21.0137 7.02412C21.0135 7.06618 21.0133 7.10824 21.0131 7.15158C21.0123 7.28434 21.0106 7.41707 21.0088 7.54982C21.0081 7.64048 21.0074 7.73115 21.0068 7.82182C21.0053 8.04269 21.0029 8.26353 21 8.48439C21.0529 8.48341 21.1058 8.48242 21.1604 8.48141C21.3587 8.47799 21.557 8.47586 21.7553 8.47409C21.8408 8.47315 21.9262 8.47188 22.0117 8.47024C22.6305 8.45872 23.1173 8.46626 23.5896 8.91285C23.9427 9.28712 24.0295 9.64076 24.0159 10.1544C23.996 10.5 23.8905 10.8219 23.789 11.1504C23.7644 11.2331 23.7398 11.3158 23.7154 11.3985C23.6578 11.5929 23.5997 11.7871 23.5412 11.9812C23.4213 12.3808 23.3044 12.7812 23.1875 13.1816C23.1649 13.2592 23.1422 13.3367 23.1196 13.4143C23.0847 13.534 23.0497 13.6537 23.0148 13.7735C22.9307 14.0614 22.8463 14.3493 22.7619 14.6372C22.5217 15.4557 22.2824 16.2744 22.0458 17.094C22.0085 17.2231 21.9711 17.3523 21.9338 17.4814C21.9216 17.5234 21.9095 17.5654 21.897 17.6087C21.8727 17.6924 21.8485 17.7762 21.8243 17.8599C21.7541 18.1024 21.6843 18.345 21.6146 18.5877C21.5713 18.7383 21.5278 18.8888 21.4841 19.0393C21.4642 19.1084 21.4443 19.1775 21.4246 19.2467C21.1912 20.0645 20.9439 20.7528 20.2031 21.2344C19.8381 21.4178 19.5131 21.5213 19.1042 21.5218C19.0428 21.522 18.9814 21.5222 18.9181 21.5223C18.85 21.5223 18.7819 21.5223 18.7139 21.5222C18.6415 21.5223 18.5691 21.5225 18.4967 21.5226C18.2978 21.523 18.0988 21.5231 17.8998 21.5231C17.6852 21.5232 17.4706 21.5236 17.2561 21.5239C16.7868 21.5245 16.3176 21.5248 15.8484 21.525C15.5554 21.5252 15.2624 21.5253 14.9694 21.5256C14.1581 21.5261 13.3468 21.5266 12.5356 21.5268C12.4577 21.5268 12.4577 21.5268 12.3782 21.5268C12.3262 21.5268 12.2741 21.5268 12.2205 21.5268C12.115 21.5269 12.0096 21.5269 11.9041 21.5269C11.8518 21.5269 11.7995 21.5269 11.7456 21.5269C10.8979 21.5271 10.0503 21.5279 9.20266 21.529C8.33236 21.5301 7.46206 21.5307 6.59177 21.5308C6.10314 21.5308 5.61452 21.5311 5.1259 21.5319C4.70981 21.5327 4.29374 21.5329 3.87765 21.5325C3.66541 21.5323 3.45318 21.5324 3.24094 21.533C3.04648 21.5336 2.85203 21.5336 2.65758 21.533C2.58739 21.5329 2.5172 21.5331 2.44702 21.5335C1.71899 21.5374 1.16428 21.387 0.627845 20.8819C0.119455 20.3553 -0.0289389 19.7952 -0.0238333 19.0758C-0.0240498 19.0111 -0.0243479 18.9464 -0.0247197 18.8818C-0.0254966 18.7055 -0.0251182 18.5293 -0.0245348 18.353C-0.0241083 18.1624 -0.0247664 17.9717 -0.025281 17.781C-0.0261125 17.4081 -0.0259356 17.0353 -0.0253911 16.6624C-0.0249668 16.3592 -0.0249106 16.056 -0.0251143 15.7529C-0.025143 15.7096 -0.0251718 15.6664 -0.0252014 15.6219C-0.0252613 15.5341 -0.0253222 15.4462 -0.0253838 15.3584C-0.0259178 14.5358 -0.0253047 13.7133 -0.0242962 12.8907C-0.0234584 12.1855 -0.0236041 11.4804 -0.0244684 10.7752C-0.0254727 9.95541 -0.0258664 9.13562 -0.0252911 8.31582C-0.0252314 8.22834 -0.0251725 8.14086 -0.0251143 8.05338C-0.0250854 8.01034 -0.0250565 7.96731 -0.0250267 7.92296C-0.0248651 7.62029 -0.0251374 7.31761 -0.0255792 7.01493C-0.0261061 6.6459 -0.0259607 6.27687 -0.0249641 5.90784C-0.0244727 5.7197 -0.024276 5.53158 -0.0248983 5.34344C-0.0254601 5.17096 -0.0251448 4.99851 -0.0241525 4.82603C-0.0238463 4.73464 -0.0244532 4.64324 -0.0251007 4.55184C-0.0198565 3.95963 0.161266 3.47866 0.560828 3.03938C0.924545 2.6875 1.39605 2.47933 1.90316 2.4778ZM1.18082 3.94319C1.05825 4.13649 1.01949 4.3043 1.01904 4.53182C1.0187 4.58523 1.01837 4.63864 1.01803 4.69366C1.01815 4.75212 1.01826 4.81058 1.01838 4.8708C1.01817 4.9337 1.01792 4.9966 1.01763 5.0595C1.01697 5.2323 1.01689 5.40509 1.01691 5.57789C1.01683 5.76428 1.01622 5.95067 1.01568 6.13706C1.01461 6.5446 1.01424 6.95215 1.014 7.35969C1.01385 7.61422 1.01354 7.86875 1.01321 8.12328C1.01229 8.82815 1.01152 9.53301 1.01138 10.2379C1.01137 10.283 1.01137 10.3281 1.01136 10.3746C1.01134 10.466 1.01132 10.5574 1.01131 10.6489C1.0113 10.6943 1.01129 10.7397 1.01128 10.7864C1.01127 10.8319 1.01126 10.8773 1.01125 10.9241C1.01109 11.6604 1.00982 12.3966 1.00807 13.1329C1.00628 13.889 1.00538 14.6451 1.00536 15.4012C1.00533 15.8256 1.00494 16.25 1.00358 16.6745C1.00243 17.0359 1.00209 17.3973 1.00279 17.7588C1.00313 17.9431 1.00309 18.1274 1.00203 18.3118C1.00106 18.4807 1.00118 18.6497 1.00216 18.8186C1.0024 18.9083 1.00149 18.9979 1.00054 19.0875C1.00446 19.4913 1.08116 19.8094 1.35531 20.116C1.60817 20.3635 1.87769 20.4609 2.22361 20.5049C2.57712 20.4615 2.89306 20.3216 3.1406 20.0625C3.4009 19.6985 3.49969 19.2603 3.61961 18.8363C3.6428 18.7557 3.66604 18.6752 3.68933 18.5947C3.73893 18.4228 3.78821 18.2509 3.83723 18.0788C3.9148 17.8066 3.99308 17.5346 4.07149 17.2627C4.16524 16.9373 4.25884 16.6119 4.35223 16.2864C4.50639 15.7493 4.66173 15.2124 4.81821 14.6759C4.82883 14.6395 4.83944 14.6031 4.85037 14.5656C4.95328 14.2129 5.0564 13.8601 5.15958 13.5074C5.19923 13.3718 5.23888 13.2363 5.27852 13.1007C5.29784 13.0346 5.31716 12.9685 5.33649 12.9025C5.45502 12.4972 5.57244 12.0916 5.68849 11.6856C5.75267 11.4613 5.81732 11.2371 5.88204 11.013C5.9113 10.9111 5.94033 10.8092 5.96909 10.7072C6.24248 9.73816 6.24248 9.73816 6.5156 9.37501C6.5376 9.34434 6.55959 9.31367 6.58225 9.28207C6.89195 8.8649 7.41829 8.61382 7.92185 8.53126C8.31214 8.49614 8.70543 8.50478 9.0969 8.50567C9.21567 8.50526 9.33445 8.50477 9.45323 8.5042C9.70792 8.50317 9.96261 8.5027 10.2173 8.50276C10.5856 8.50283 10.9538 8.50188 11.322 8.50068C11.9196 8.49876 12.5172 8.49766 13.1148 8.49709C13.6949 8.49653 14.2751 8.49559 14.8552 8.49411C14.891 8.49402 14.9269 8.49393 14.9638 8.49384C15.1435 8.49338 15.3233 8.49292 15.503 8.49245C16.9916 8.48857 18.4801 8.48605 19.9687 8.48439C19.9722 8.25007 19.9748 8.01577 19.9765 7.78143C19.9772 7.70183 19.9781 7.62222 19.9793 7.54262C19.9811 7.42776 19.9818 7.31294 19.9825 7.19807C19.9832 7.16285 19.9839 7.12763 19.9847 7.09135C19.9848 6.79618 19.907 6.59448 19.749 6.34279C19.5081 6.10192 19.2136 6.00694 18.8774 5.99417C18.7893 5.99417 18.7893 5.99417 18.6993 5.99417C18.6664 5.99411 18.6335 5.99404 18.5996 5.99397C18.4897 5.9938 18.3798 5.99396 18.2699 5.99411C18.1909 5.99404 18.112 5.99395 18.0331 5.99384C17.8631 5.99363 17.6932 5.99354 17.5232 5.99354C17.2541 5.99348 16.9849 5.99288 16.7158 5.99215C16.6476 5.99197 16.6476 5.99197 16.578 5.99179C16.485 5.99154 16.392 5.99129 16.299 5.99104C15.6725 5.9894 15.0461 5.98815 14.4196 5.98827C13.9969 5.98834 13.5741 5.98759 13.1513 5.98589C12.9279 5.98503 12.7044 5.98459 12.4809 5.98517C12.2704 5.98571 12.0599 5.98515 11.8493 5.98378C11.7725 5.98347 11.6956 5.98355 11.6188 5.98407C10.9748 5.98809 10.4358 5.88664 9.9589 5.42048C9.66287 5.1028 9.38995 4.76896 9.12509 4.42504C8.77678 3.9739 8.4525 3.63679 7.87498 3.51564C7.79198 3.51115 7.70883 3.50912 7.6257 3.50874C7.57518 3.5084 7.52465 3.50807 7.47259 3.50772C7.41739 3.5076 7.36218 3.50747 7.3053 3.50734C7.24697 3.50703 7.18864 3.50672 7.12855 3.50641C6.93528 3.50548 6.74201 3.50493 6.54874 3.50447C6.48206 3.50428 6.41538 3.50408 6.3487 3.50389C6.03532 3.503 5.72194 3.50233 5.40856 3.50194C5.04754 3.50148 4.68652 3.50025 4.3255 3.49835C4.04599 3.49694 3.76649 3.49624 3.48698 3.49609C3.32026 3.49598 3.15355 3.49556 2.98683 3.49438C2.80058 3.49308 2.61436 3.49328 2.4281 3.49361C2.34601 3.49271 2.34601 3.49271 2.26225 3.49179C1.80808 3.49468 1.47409 3.58307 1.18082 3.94319ZM7.35935 9.93751C7.15447 10.2423 7.04993 10.5667 6.95212 10.9177C6.93643 10.9723 6.92073 11.027 6.90455 11.0833C6.8705 11.2021 6.83663 11.321 6.80308 11.44C6.74879 11.6324 6.69376 11.8247 6.63861 12.0169C6.5799 12.2216 6.52123 12.4264 6.46278 12.6312C6.3239 13.1178 6.18337 13.604 6.04154 14.0898C6.03156 14.124 6.02159 14.1581 6.01131 14.1934C5.9504 14.4019 5.88944 14.6105 5.82846 14.8191C5.74628 15.1002 5.6642 15.3813 5.58213 15.6624C5.56138 15.7335 5.54062 15.8046 5.51986 15.8757C5.37642 16.367 5.23359 16.8585 5.09121 17.3501C5.01199 17.6237 4.93261 17.8972 4.8532 18.1707C4.78852 18.3935 4.72405 18.6164 4.65972 18.8394C4.61986 18.9773 4.5798 19.1152 4.53969 19.2531C4.52126 19.3166 4.50291 19.3802 4.48465 19.4437C4.45949 19.5313 4.434 19.6187 4.4085 19.7062C4.3944 19.7549 4.3803 19.8036 4.36577 19.8539C4.32024 19.9921 4.26977 20.1252 4.21539 20.2601C4.19847 20.3022 4.18155 20.3442 4.16412 20.3875C4.14474 20.4355 4.14474 20.4355 4.12498 20.4844C6.04065 20.4876 7.95632 20.4901 9.872 20.4916C10.0982 20.4917 10.3244 20.4919 10.5505 20.4921C10.5956 20.4921 10.6406 20.4922 10.687 20.4922C11.416 20.4928 12.145 20.4939 12.8741 20.4952C13.6221 20.4966 14.3702 20.4973 15.1183 20.4976C15.5799 20.4978 16.0415 20.4984 16.503 20.4996C16.8196 20.5003 17.1362 20.5005 17.4527 20.5003C17.6353 20.5003 17.8179 20.5004 18.0006 20.5012C18.1679 20.5018 18.3352 20.5019 18.5026 20.5014C18.5915 20.5013 18.6803 20.5019 18.7692 20.5025C19.2177 20.5002 19.5958 20.4417 19.9257 20.1192C20.2207 19.7794 20.324 19.2841 20.4433 18.8608C20.4613 18.7983 20.4792 18.7358 20.4972 18.6733C20.5357 18.5396 20.574 18.4058 20.612 18.2719C20.673 18.0574 20.7345 17.843 20.7961 17.6286C20.8609 17.4033 20.9257 17.1779 20.9902 16.9525C21.2001 16.2201 21.4131 15.4886 21.6267 14.7573C21.6781 14.5815 21.7294 14.4056 21.7806 14.2296C21.9794 13.5471 22.179 12.8649 22.3818 12.1836C22.4385 11.9929 22.4949 11.8022 22.5514 11.6116C22.6123 11.4061 22.6738 11.2009 22.7355 10.9956C22.7667 10.8904 22.7979 10.7852 22.829 10.68C22.8433 10.633 22.8576 10.5859 22.8724 10.5374C22.9972 10.1436 22.9972 10.1436 22.9224 9.75184C22.7816 9.60154 22.6948 9.52119 22.4839 9.5096C22.4402 9.50952 22.3965 9.50943 22.3515 9.50935C22.2759 9.50903 22.2759 9.50903 22.1987 9.50871C22.143 9.50872 22.0874 9.50873 22.0301 9.50874C21.9711 9.50857 21.9122 9.50839 21.8515 9.50822C21.6876 9.50775 21.5236 9.50757 21.3597 9.50745C21.183 9.50727 21.0064 9.50682 20.8297 9.50641C20.4028 9.50548 19.9759 9.50501 19.5491 9.50459C19.348 9.50439 19.147 9.50413 18.9459 9.50389C18.2776 9.50309 17.6092 9.50241 16.9409 9.50207C16.7674 9.50198 16.5939 9.50189 16.4205 9.5018C16.3774 9.50178 16.3342 9.50176 16.2898 9.50173C15.5916 9.50134 14.8934 9.50016 14.1952 9.49863C13.4783 9.49708 12.7614 9.49624 12.0445 9.49609C11.642 9.49599 11.2395 9.49558 10.8371 9.49438C10.4942 9.49336 10.1514 9.49298 9.80857 9.49344C9.63373 9.49365 9.45891 9.49357 9.28407 9.49265C9.09426 9.49167 8.90447 9.49216 8.71466 9.49277C8.65976 9.49226 8.60486 9.49175 8.5483 9.49122C8.08825 9.49482 7.68633 9.59532 7.35935 9.93751Z" fill="#6B7280"/>
</g>
<defs>
<clipPath id="clip0_256_166">
<rect width="24" height="24" fill="white"/>
</clipPath>
</defs>
</svg>
